<svg width="492" height="384" viewBox="0 0 492 384" fill="none" xmlns="http://www.w3.org/2000/svg">
<path d="M290 112.1C290 112.1 285.78 116.32 293.62 148.32C301.46 180.32 319.28 204.76 319.28 204.76C326.263 198.138 331.408 189.817 334.212 180.612C337.017 171.406 337.385 161.63 335.28 152.24C328.6 119 290 112.1 290 112.1Z" fill="#22272E"/>
<path d="M294.49 206.27C294.49 206.27 288.49 208.08 274.27 222.87C260.05 237.66 239.27 245.2 214.51 256.37C189.75 267.54 177.68 215.62 184.02 189.37C190.02 163.11 217.22 145 217.22 145L270 152.24C270 152.24 287.51 131.41 294.45 144.99C301.13 158.58 300.53 189.06 294.49 206.27Z" fill="#F4C2C9"/>
<path d="M249.22 302.55L69.3301 343.9C67.4645 344.337 65.5309 344.402 63.6403 344.091C61.7496 343.779 59.939 343.098 58.3122 342.085C56.6855 341.072 55.2747 339.749 54.1606 338.19C53.0465 336.631 52.2512 334.867 51.8201 333L0.820072 112.1C0.380766 110.237 0.313334 108.306 0.621641 106.417C0.929947 104.528 1.60793 102.718 2.61676 101.092C3.62558 99.465 4.94542 98.0534 6.50066 96.9378C8.0559 95.8221 9.81599 95.0243 11.6801 94.59L191.57 53.24C193.433 52.8023 195.364 52.7364 197.252 53.0461C199.141 53.3557 200.95 54.0348 202.575 55.0446C204.201 56.0543 205.611 57.3747 206.726 58.9303C207.84 60.4859 208.637 62.2461 209.07 64.11L259.78 285C260.285 286.847 260.41 288.777 260.148 290.673C259.885 292.57 259.241 294.393 258.254 296.034C257.267 297.674 255.957 299.097 254.405 300.217C252.852 301.337 251.088 302.131 249.22 302.55Z" fill="#22272E"/>
<path d="M173.46 116.62L56.35 143.49C55.4371 143.702 54.4909 143.729 53.5674 143.569C52.6439 143.409 51.762 143.065 50.9739 142.558C50.1858 142.051 49.5076 141.39 48.9796 140.616C48.4516 139.841 48.0845 138.969 47.9 138.05V138.05C47.6874 137.138 47.66 136.192 47.8195 135.269C47.979 134.346 48.322 133.465 48.8284 132.677C49.3347 131.889 49.994 131.211 50.7673 130.682C51.5405 130.154 52.412 129.786 53.33 129.6L170.44 102.74C171.352 102.527 172.298 102.5 173.221 102.659C174.144 102.819 175.025 103.162 175.813 103.668C176.601 104.175 177.279 104.834 177.808 105.607C178.336 106.38 178.704 107.252 178.89 108.17V108.17C179.161 109.997 178.76 111.861 177.762 113.414C176.763 114.968 175.235 116.107 173.46 116.62V116.62Z" fill="#A64AC7"/>
<path d="M56.05 174.57L187.04 144.39" stroke="#63737A" stroke-width="5.43" stroke-linecap="round" stroke-linejoin="round"/>
<path d="M61.1802 196.61L192.17 166.42" stroke="#63737A" stroke-width="5.43" stroke-linecap="round" stroke-linejoin="round"/>
<path d="M139.35 283.53L91.0601 294.7C90.1479 294.913 89.2023 294.94 88.2794 294.78C87.3565 294.621 86.4749 294.278 85.687 293.772C84.899 293.265 84.2207 292.606 83.6922 291.833C83.1637 291.059 82.7957 290.188 82.6101 289.27L71.4401 241C71.2276 240.087 71.2006 239.141 71.3607 238.217C71.5208 237.294 71.8647 236.412 72.3721 235.624C72.8794 234.836 73.5399 234.158 74.3142 233.63C75.0886 233.102 75.9611 232.734 76.8801 232.55L125.17 221.39C126.082 221.177 127.028 221.15 127.951 221.309C128.874 221.469 129.755 221.812 130.543 222.318C131.331 222.825 132.009 223.484 132.538 224.257C133.066 225.03 133.434 225.902 133.62 226.82L144.79 275.11C145.049 276.933 144.641 278.788 143.641 280.335C142.642 281.882 141.118 283.016 139.35 283.53V283.53Z" fill="#A64AC7"/>
<path d="M151.43 215.02L200.62 203.55" stroke="#63737A" stroke-width="5.43" stroke-linecap="round" stroke-linejoin="round"/>
<path d="M156.86 238.86L206.36 227.69" stroke="#63737A" stroke-width="5.43" stroke-linecap="round" stroke-linejoin="round"/>
<path d="M162.29 263.01L192.17 256.07" stroke="#63737A" stroke-width="5.43" stroke-linecap="round" stroke-linejoin="round"/>
<path d="M135.43 73.1599L71.4402 87.9999C70.3987 88.2177 69.3193 88.1715 68.3003 87.8655C67.2812 87.5596 66.3548 87.0037 65.6055 86.2484C64.8561 85.493 64.3075 84.5623 64.0097 83.5408C63.7119 82.5194 63.6742 81.4397 63.9002 80.3999L64.5002 77.3999C64.7809 76.2274 65.3808 75.1556 66.2333 74.303C67.0858 73.4505 68.1577 72.8507 69.3302 72.5699L130.6 58.3699C131.748 58.0881 132.953 58.1367 134.075 58.51C135.196 58.8834 136.19 59.5663 136.94 60.4799L138.75 62.8999C141.77 66.8199 140 72.2599 135.43 73.1599Z" fill="#6DAFA7"/>
<path d="M274.27 133.83C274.27 133.83 266.72 137.75 252.27 133.83C237.82 129.91 235.37 126.28 220.27 122.36C205.17 118.44 184.35 122.66 180.73 129C177.11 135.34 186.73 139.26 199.73 140.77C212.73 142.28 218.73 167.03 239.57 176.38C274.27 191.78 305.05 144.69 274.27 133.83Z" fill="#F4C2C9"/>
<path d="M180.7 129C177.08 135.34 186.7 139.26 199.7 140.77C212.7 142.28 218.7 167.03 239.54 176.38C245.947 179.354 253.137 180.201 260.06 178.8" stroke="#E26E85" stroke-width="5.43" stroke-linecap="round" stroke-linejoin="round"/>
<path d="M297.21 119.94C297.21 119.94 281.21 130.21 274.27 133.83C274.27 133.83 287.85 147.11 293.27 170.95C298.69 194.79 294.48 206.27 294.48 206.27C294.48 206.27 312.29 204.45 321.04 198.12C321.04 198.12 329.49 184.23 322.55 157.07C315.61 129.91 297.21 119.94 297.21 119.94Z" fill="white"/>
<path d="M486.75 83.12C483.986 73.8851 479.066 65.4396 472.397 58.4801C465.727 51.5205 457.498 46.2463 448.389 43.0924C439.28 39.9385 429.552 38.9954 420.006 40.3407C410.461 41.686 401.372 45.2813 393.49 50.83C373.57 64.71 352.74 78.29 336.14 87.35L290 112.4C290 112.4 316.26 138.35 320.19 167.03C324.12 195.71 319.28 205.03 319.28 205.03C319.28 205.03 391.42 187.22 455.1 156.13C481.96 142.55 495.54 111.76 486.79 83.13L486.75 83.12Z" fill="#6DAFA7"/>
<path d="M313.2 183C313.198 182.284 312.984 181.586 312.585 180.992C312.186 180.398 311.62 179.935 310.958 179.663C310.297 179.39 309.569 179.32 308.868 179.461C308.166 179.602 307.522 179.947 307.017 180.454C306.511 180.96 306.168 181.605 306.029 182.307C305.89 183.009 305.962 183.737 306.236 184.398C306.511 185.058 306.975 185.623 307.57 186.021C308.165 186.418 308.864 186.63 309.58 186.63C310.061 186.648 310.541 186.567 310.989 186.391C311.437 186.215 311.844 185.948 312.184 185.607C312.524 185.266 312.79 184.858 312.965 184.41C313.14 183.961 313.22 183.481 313.2 183Z" fill="#22272E"/>
</svg>
