<svg width="492" height="384" viewBox="0 0 492 384" fill="none" xmlns="http://www.w3.org/2000/svg">
<path d="M242.12 383L113 375.05C110.728 374.926 108.508 374.319 106.49 373.27C104.471 372.22 102.699 370.752 101.293 368.963C99.8864 367.174 98.8777 365.106 98.334 362.897C97.7904 360.687 97.7242 358.387 98.14 356.15L147.34 80.44C148.178 75.8463 150.482 71.6479 153.908 68.4747C157.334 65.3015 161.696 63.3244 166.34 62.84L296.04 50.29C298.504 50.0515 300.989 50.3825 303.305 51.2574C305.621 52.1324 307.704 53.5279 309.394 55.3362C311.085 57.1445 312.337 59.3171 313.054 61.6863C313.771 64.0555 313.934 66.5579 313.53 69L264.53 365C263.723 370.26 260.974 375.026 256.826 378.358C252.677 381.691 247.43 383.347 242.12 383V383Z" fill="#F8AB5D"/>
<path d="M235.05 382.12L105.92 374.18C103.648 374.056 101.428 373.449 99.4096 372.4C97.3908 371.35 95.619 369.882 94.2127 368.093C92.8063 366.304 91.7976 364.236 91.254 362.027C90.7103 359.817 90.6441 357.517 91.0599 355.28L140.26 79.57C141.098 74.9763 143.402 70.778 146.828 67.6047C150.254 64.4315 154.616 62.4544 159.26 61.97L289 49.42C291.466 49.1867 293.952 49.5233 296.267 50.4039C298.583 51.2844 300.664 52.6854 302.352 54.4985C304.039 56.3117 305.287 58.4884 306 60.8607C306.712 63.2329 306.869 65.7372 306.46 68.18L257.46 364.23C256.603 369.458 253.837 374.181 249.697 377.486C245.557 380.791 240.338 382.442 235.05 382.12V382.12Z" fill="#D1BBFF"/>
<path d="M365.18 226.3L166.37 229.76C165.157 229.781 163.955 229.532 162.85 229.033C161.745 228.533 160.764 227.795 159.978 226.872C159.192 225.948 158.621 224.862 158.305 223.691C157.988 222.52 157.936 221.294 158.15 220.1L172.72 137.1C173.136 134.811 174.293 132.723 176.014 131.158C177.734 129.593 179.922 128.638 182.24 128.44L378.45 115.31C380.021 115.204 381.595 115.455 383.055 116.044C384.515 116.633 385.823 117.544 386.881 118.71C387.939 119.876 388.719 121.266 389.164 122.776C389.609 124.286 389.707 125.877 389.45 127.43L375 217.64C374.734 220.046 373.58 222.267 371.765 223.869C369.949 225.47 367.601 226.337 365.18 226.3V226.3Z" fill="#F8AB5D"/>
<path d="M343.25 360L144.44 351.35C143.271 351.286 142.128 350.978 141.086 350.444C140.043 349.91 139.125 349.163 138.39 348.251C137.656 347.339 137.121 346.282 136.821 345.15C136.522 344.018 136.463 342.836 136.65 341.68L151.65 256.68C152.081 254.271 153.34 252.088 155.21 250.508C157.08 248.929 159.443 248.052 161.89 248.03L358.39 246.44C359.908 246.436 361.408 246.761 362.788 247.394C364.168 248.026 365.394 248.95 366.382 250.103C367.369 251.255 368.095 252.608 368.509 254.068C368.923 255.528 369.016 257.061 368.78 258.56L354.06 351.33C353.624 353.844 352.285 356.113 350.295 357.709C348.304 359.306 345.799 360.12 343.25 360V360Z" fill="#F8AB5D"/>
<path d="M137.23 96.17L304.01 82.89" stroke="#F8AB5D" stroke-width="2.6" stroke-linecap="round" stroke-linejoin="round"/>
<path d="M222.06 76.11L207.78 77.41C206.48 77.56 205.78 76.55 205.9 75.1C206.022 74.418 206.35 73.7898 206.84 73.2999C207.33 72.8101 207.958 72.482 208.64 72.36L222.93 71.06C224.23 70.92 225.09 71.93 224.8 73.37C224.659 74.0436 224.325 74.6616 223.838 75.1482C223.352 75.6348 222.734 75.9691 222.06 76.11V76.11Z" fill="#22272E"/>
<path d="M231.58 75.25C230.28 75.39 229.42 74.38 229.71 72.94C229.829 72.2569 230.157 71.6272 230.647 71.1368C231.137 70.6464 231.767 70.3193 232.45 70.2V70.2C233.75 70.05 234.61 71.06 234.32 72.51C234.25 73.2128 233.939 73.8695 233.439 74.369C232.94 74.8684 232.283 75.1796 231.58 75.25V75.25Z" fill="#22272E"/>
<path d="M392.3 85.06L337.3 89.24C336.845 89.2891 336.386 89.2307 335.958 89.0697C335.53 88.9087 335.146 88.6494 334.836 88.3128C334.527 87.9762 334.301 87.5716 334.177 87.1317C334.052 86.6918 334.033 86.2288 334.12 85.78L339.6 52.45C339.751 51.4673 340.227 50.5637 340.952 49.8838C341.677 49.2039 342.61 48.787 343.6 48.7L397.99 42.93C398.525 42.8722 399.066 42.9368 399.573 43.1189C400.079 43.301 400.537 43.5958 400.913 43.9812C401.289 44.3665 401.572 44.8322 401.741 45.343C401.91 45.8539 401.961 46.3966 401.89 46.93L396.55 81.27C396.301 82.254 395.763 83.1409 395.006 83.8164C394.248 84.492 393.306 84.9251 392.3 85.06V85.06Z" stroke="#6DAFA7" stroke-width="2.6" stroke-linecap="round" stroke-linejoin="round"/>
<path d="M341.09 49.57L365 65C365.64 65.4257 366.391 65.6528 367.16 65.6528C367.928 65.6528 368.68 65.4257 369.32 65L400.49 43.65" stroke="#6DAFA7" stroke-width="2.6" stroke-linecap="round" stroke-linejoin="round"/>
<path d="M144.3 147.38L99.14 149.84L92.5 154.16C92.1571 154.388 91.7539 154.509 91.342 154.506C90.9301 154.504 90.5282 154.379 90.1878 154.147C89.8475 153.915 89.584 153.587 89.4312 153.204C89.2784 152.822 89.2431 152.403 89.33 152L96.4 112.76C96.6682 111.23 97.4377 109.833 98.5874 108.788C99.737 107.743 101.201 107.111 102.75 106.99L149.75 103.38C150.468 103.314 151.191 103.414 151.864 103.673C152.537 103.931 153.141 104.342 153.629 104.872C154.118 105.402 154.478 106.038 154.681 106.729C154.884 107.421 154.924 108.15 154.8 108.86L148.74 143.2C148.585 144.297 148.06 145.309 147.253 146.069C146.446 146.829 145.405 147.291 144.3 147.38V147.38Z" fill="#6DAFA7"/>
<path d="M105.2 118.53L143.29 115.79" stroke="#22272E" stroke-width="2.6" stroke-linecap="round" stroke-linejoin="round"/>
<path d="M103.47 128.19L141.56 125.6" stroke="#22272E" stroke-width="2.6" stroke-linecap="round" stroke-linejoin="round"/>
<path d="M101.74 137.72L121.65 136.56" stroke="#22272E" stroke-width="2.6" stroke-linecap="round" stroke-linejoin="round"/>
<path d="M354.5 217.5L155.7 221C154.487 221.02 153.285 220.772 152.179 220.272C151.074 219.773 150.092 219.035 149.306 218.112C148.519 217.189 147.946 216.102 147.629 214.932C147.312 213.761 147.257 212.534 147.47 211.34L162.04 128.34C162.456 126.05 163.615 123.96 165.338 122.395C167.06 120.83 169.251 119.875 171.57 119.68L367.78 106.55C369.351 106.444 370.925 106.695 372.385 107.284C373.845 107.873 375.153 108.784 376.211 109.95C377.269 111.116 378.049 112.506 378.494 114.016C378.939 115.526 379.037 117.117 378.78 118.67L364.35 208.84C364.062 211.243 362.898 213.455 361.081 215.053C359.263 216.651 356.92 217.522 354.5 217.5V217.5Z" fill="#22272E"/>
<path d="M207.2 154.74C206.2 160.66 201 165.74 195.66 165.99C190.32 166.24 186.86 161.67 187.87 155.75C188.88 149.83 194.07 144.75 199.41 144.5C204.75 144.25 208.21 148.83 207.2 154.74Z" fill="#D1BBFF"/>
<path d="M203.45 192.69L179.79 193.41C179.036 193.44 178.284 193.302 177.59 193.004C176.897 192.707 176.278 192.257 175.781 191.69C175.283 191.122 174.919 190.45 174.715 189.724C174.51 188.997 174.471 188.234 174.6 187.49L175.03 184.89C176.9 174.22 186.14 165.13 195.8 164.89C205.47 164.46 211.96 172.97 210.09 183.79L209.51 187.54C209.217 188.951 208.462 190.223 207.365 191.156C206.267 192.089 204.889 192.629 203.45 192.69V192.69Z" fill="#D1BBFF"/>
<path d="M333.15 155.75L238.94 160.08C238.475 160.116 238.008 160.044 237.576 159.868C237.144 159.693 236.759 159.419 236.451 159.069C236.144 158.718 235.922 158.301 235.804 157.85C235.685 157.399 235.674 156.926 235.77 156.47L236.77 150.12C236.957 149.082 237.484 148.137 238.268 147.432C239.052 146.728 240.049 146.305 241.1 146.23L335.45 141.32C335.915 141.284 336.382 141.356 336.814 141.531C337.246 141.707 337.631 141.981 337.939 142.331C338.247 142.682 338.468 143.099 338.587 143.55C338.705 144.001 338.716 144.474 338.62 144.93L337.47 151.86C337.33 152.916 336.818 153.888 336.027 154.601C335.235 155.314 334.215 155.721 333.15 155.75V155.75Z" fill="#6DAFA7"/>
<path d="M237.93 177.1L239.37 181.58L243.85 182.3L239.95 186.19L239.66 191.24L235.91 189.22L231.29 191.53L232.74 186.48L230.14 182.88L234.9 181.72L237.93 177.1Z" fill="#D1BBFF"/>
<path d="M259.57 176.38L261.16 180.85L265.63 181.58L261.74 185.47L261.59 190.52L257.55 188.5L252.94 190.81L254.38 185.76L251.78 182.01L256.54 181L259.57 176.38Z" fill="#D1BBFF"/>
<path d="M281.79 175.52L283.38 179.99L287.99 180.85L283.95 184.75L283.81 189.94L279.77 187.78L275.01 190.23L276.45 185.04L273.71 181.29L278.76 180.13L281.79 175.52Z" fill="#D1BBFF"/>
<path d="M304.44 174.65L306.03 179.27L310.79 179.99L306.75 184.03L306.61 189.22L302.42 187.06L297.52 189.51L299.1 184.17L296.22 180.57L301.27 179.41L304.44 174.65Z" fill="#D1BBFF"/>
<path d="M327.67 173.78L329.26 178.4L334.16 179.27L329.98 183.16L329.83 188.5L325.5 186.34L320.6 188.79L322.19 183.45L319.3 179.7L324.35 178.55L327.67 173.78Z" fill="#D1BBFF"/>
<path d="M332.43 351.24L133.77 342.44C132.6 342.38 131.455 342.073 130.411 341.54C129.367 341.007 128.448 340.26 127.713 339.347C126.977 338.434 126.443 337.377 126.145 336.243C125.846 335.11 125.79 333.926 125.98 332.77L140.98 247.77C141.411 245.36 142.67 243.176 144.539 241.594C146.409 240.013 148.772 239.135 151.22 239.11L347.72 237.52C349.238 237.514 350.74 237.839 352.12 238.47C353.501 239.102 354.727 240.026 355.716 241.179C356.704 242.332 357.43 243.685 357.843 245.146C358.256 246.607 358.348 248.14 358.11 249.64L343.4 342.44C342.959 344.992 341.601 347.295 339.58 348.916C337.56 350.537 335.017 351.363 332.43 351.24Z" fill="#22272E"/>
<path d="M186 277.52C185 283.58 179.8 288.52 174.32 288.34C168.84 288.16 165.52 283.34 166.53 277.23C167.54 271.12 172.73 266.41 178.07 266.41C183.41 266.41 187.15 271.46 186 277.52Z" fill="#D1BBFF"/>
<path d="M181.81 316.47L158.15 315.75C157.428 315.714 156.721 315.528 156.074 315.204C155.428 314.88 154.856 314.426 154.394 313.869C153.932 313.312 153.591 312.666 153.393 311.971C153.194 311.275 153.142 310.547 153.24 309.83L153.82 306.83C155.7 295.83 164.93 287.2 174.6 287.35C184.26 287.49 190.75 296.58 188.73 307.69L188.16 311.3C187.897 312.78 187.111 314.116 185.945 315.065C184.78 316.014 183.312 316.512 181.81 316.47V316.47Z" fill="#D1BBFF"/>
<path d="M311.66 286.46L217.44 285.16C216.996 285.15 216.56 285.045 216.16 284.852C215.76 284.659 215.406 284.383 215.122 284.042C214.838 283.701 214.63 283.303 214.512 282.875C214.394 282.447 214.37 281.998 214.44 281.56L215.59 274.92C215.769 273.827 216.333 272.834 217.18 272.12C218.028 271.407 219.102 271.02 220.21 271.03L314.56 271.75C315.004 271.76 315.44 271.865 315.84 272.058C316.24 272.251 316.594 272.527 316.878 272.868C317.162 273.209 317.37 273.607 317.488 274.035C317.605 274.463 317.63 274.912 317.56 275.35L316.41 282.57C316.163 283.654 315.562 284.625 314.702 285.33C313.842 286.034 312.771 286.432 311.66 286.46V286.46Z" fill="#6DAFA7"/>
<path d="M216.58 302.62L218.02 307.24L222.49 308.25L218.6 312L218.46 317.19L214.56 314.74L209.94 316.9L211.38 311.71L208.93 307.96L213.55 307.09L216.58 302.62Z" fill="#D1BBFF"/>
<path d="M238.36 303.05L239.81 307.67L244.42 308.82L240.38 312.58L240.24 317.77L236.2 315.46L231.58 317.63L233.03 312.43L230.43 308.39L235.34 307.67L238.36 303.05Z" fill="#D1BBFF"/>
<path d="M260.58 303.63L262.02 308.25L266.79 309.4L262.75 313.15L262.46 318.49L258.42 316.04L253.66 318.2L255.24 313.01L252.5 308.97L257.41 308.25L260.58 303.63Z" fill="#D1BBFF"/>
<path d="M283.23 304.06L284.82 308.82L289.58 309.98L285.4 313.88L285.25 319.21L281.07 316.76L276.16 318.92L277.75 313.59L275.01 309.55L280.06 308.68L283.23 304.06Z" fill="#63737A"/>
<path d="M306.32 304.64L308.05 309.4L312.81 310.56L308.63 314.45L308.48 319.93L304.3 317.34L299.25 319.65L300.83 314.16L297.95 310.27L303.14 309.4L306.32 304.64Z" fill="#63737A"/>
<path d="M329 18.69C328.229 17.8362 327.222 17.23 326.107 16.948C324.991 16.6661 323.817 16.7211 322.733 17.1059C321.649 17.4908 320.703 18.1884 320.015 19.1106C319.328 20.0327 318.928 21.138 318.868 22.2869C318.808 23.4358 319.09 24.5767 319.678 25.5655C320.266 26.5543 321.134 27.3466 322.172 27.8424C323.21 28.3382 324.372 28.5152 325.511 28.351C326.65 28.1868 327.714 27.6889 328.57 26.92C329.145 26.4121 329.613 25.7946 329.947 25.1035C330.281 24.4124 330.473 23.6617 330.514 22.8953C330.554 22.1289 330.44 21.3623 330.18 20.6402C329.921 19.9181 329.519 19.2551 329 18.69Z" fill="#22272E"/>
<path d="M321.18 5.12999L320.18 3.97999C319.368 3.08229 318.386 2.35456 317.291 1.83893C316.196 1.3233 315.01 1.03002 313.801 0.976074C312.592 0.92213 311.384 1.10859 310.247 1.52466C309.111 1.94074 308.068 2.57815 307.18 3.39999V3.39999C306.282 4.21169 305.554 5.19374 305.038 6.28911C304.523 7.38449 304.23 8.57136 304.177 9.78082C304.124 10.9903 304.312 12.1982 304.729 13.3345C305.147 14.4708 305.786 15.5128 306.61 16.4L307.61 17.56C308.785 18.8778 309.625 20.459 310.06 22.17C310.35 23.47 310.78 25.06 311.21 26.5C311.391 27.2215 311.755 27.8841 312.267 28.4236C312.779 28.9631 313.421 29.3613 314.133 29.5796C314.844 29.7978 315.599 29.8288 316.326 29.6694C317.052 29.5101 317.725 29.1658 318.28 28.67L324.77 22.75L331.27 16.84C331.822 16.3427 332.235 15.7103 332.469 15.0049C332.702 14.2995 332.748 13.5454 332.602 12.8169C332.455 12.0884 332.122 11.4105 331.634 10.8499C331.146 10.2894 330.521 9.86551 329.82 9.61999C328.38 9.04999 326.94 8.61999 325.64 8.17999C323.995 7.41722 322.487 6.38654 321.18 5.12999V5.12999Z" fill="#6DAFA7"/>
</svg>
