<svg width="676" height="489" viewBox="0 0 676 489" fill="none" xmlns="http://www.w3.org/2000/svg">
<path d="M592.3 430.1L72.3003 415.2C60.6085 414.875 49.4361 410.299 40.8763 402.328C32.3165 394.357 26.9564 383.539 25.8003 371.9L0.700285 123.9C0.0320345 117.262 0.74983 110.557 2.80818 104.21C4.86653 97.8639 8.22057 92.0141 12.6578 87.0316C17.0951 82.0491 22.5188 78.0426 28.5854 75.2657C34.652 72.4888 41.2292 71.0022 47.9003 70.9L626.7 62.9C633.583 62.807 640.406 64.189 646.711 66.953C653.015 69.7171 658.654 73.7991 663.249 78.9246C667.844 84.05 671.288 90.1 673.349 96.6676C675.411 103.235 676.042 110.168 675.2 117L641.5 387.9C640.016 399.793 634.152 410.705 625.055 418.508C615.958 426.311 604.28 430.444 592.3 430.1V430.1Z" fill="#EAF9F3"/>
<path d="M249.9 311.1H166.7C165.401 311.097 164.156 310.58 163.238 309.662C162.32 308.744 161.802 307.499 161.8 306.2V293C161.802 291.701 162.32 290.456 163.238 289.538C164.156 288.62 165.401 288.103 166.7 288.1H249.9C251.199 288.103 252.443 288.62 253.362 289.538C254.28 290.456 254.797 291.701 254.8 293V306.1C254.809 306.751 254.689 307.397 254.448 308.001C254.206 308.605 253.847 309.156 253.391 309.621C252.936 310.086 252.393 310.456 251.794 310.709C251.194 310.963 250.551 311.096 249.9 311.1V311.1Z" stroke="#D8B8D5" stroke-width="1.8" stroke-linecap="round" stroke-linejoin="round"/>
<path d="M238.2 267.1H178.2V288.1H238.2V267.1Z" stroke="#D8B8D5" stroke-width="1.8" stroke-linecap="round" stroke-linejoin="round"/>
<path d="M171.2 297.3C172.029 297.3 172.7 296.628 172.7 295.8C172.7 294.972 172.029 294.3 171.2 294.3C170.372 294.3 169.7 294.972 169.7 295.8C169.7 296.628 170.372 297.3 171.2 297.3Z" fill="#D8B8D5"/>
<path d="M233.8 323H223.5L222.4 335.8H232.3L233.8 323Z" fill="#6DAFA7"/>
<path d="M222.4 335.8L209.3 484.8C209.273 485.202 209.327 485.606 209.459 485.987C209.592 486.367 209.799 486.717 210.07 487.016C210.341 487.315 210.669 487.556 211.035 487.725C211.401 487.894 211.797 487.988 212.2 488C212.918 487.999 213.612 487.734 214.147 487.254C214.682 486.775 215.021 486.114 215.1 485.4L232.3 335.8H222.4Z" fill="#B0D7C0"/>
<path d="M323.8 323H313.5L315 335.8H324.9L323.8 323Z" fill="#B0D7C0"/>
<path d="M315 335.8L332.2 485.4C332.318 486.137 332.714 486.801 333.306 487.255C333.898 487.709 334.641 487.92 335.384 487.843C336.126 487.766 336.811 487.408 337.297 486.842C337.784 486.276 338.035 485.546 338 484.8L324.9 335.8H315Z" fill="#B0D7C0"/>
<path d="M327.6 404H221.4V409.1H327.6V404Z" fill="#B0D7C0"/>
<path d="M334.4 326.7H212.9C212.44 326.703 211.984 326.614 211.558 326.439C211.132 326.264 210.745 326.006 210.42 325.681C210.094 325.355 209.836 324.968 209.661 324.542C209.487 324.117 209.398 323.66 209.4 323.2V322.9C209.398 322.44 209.487 321.983 209.661 321.557C209.836 321.132 210.094 320.745 210.42 320.419C210.745 320.094 211.132 319.836 211.558 319.661C211.984 319.486 212.44 319.397 212.9 319.4H334.5C334.961 319.397 335.417 319.486 335.843 319.661C336.269 319.836 336.656 320.094 336.981 320.419C337.307 320.745 337.564 321.132 337.739 321.557C337.914 321.983 338.003 322.44 338 322.9V323.2C337.985 324.141 337.597 325.037 336.923 325.693C336.248 326.349 335.341 326.711 334.4 326.7V326.7Z" fill="#22272E"/>
<path d="M521.7 264.8L432.2 259.3C430.625 259.213 429.088 258.791 427.689 258.063C426.291 257.335 425.063 256.317 424.089 255.078C423.114 253.838 422.415 252.406 422.038 250.875C421.66 249.344 421.613 247.75 421.9 246.2L456 55.1C456.587 51.9136 458.19 49.0031 460.57 46.8039C462.949 44.6047 465.977 43.2351 469.2 42.9L559.1 34.2C560.808 34.0385 562.531 34.2719 564.136 34.8821C565.74 35.4924 567.182 36.4632 568.352 37.7195C569.521 38.9759 570.386 40.4842 570.88 42.128C571.374 43.7718 571.483 45.5072 571.2 47.2L537.2 252.4C536.624 256.026 534.717 259.307 531.85 261.6C528.983 263.894 525.363 265.035 521.7 264.8Z" fill="#F8AB5D"/>
<path d="M516.8 264.2L427.3 258.7C425.726 258.613 424.188 258.191 422.79 257.463C421.391 256.735 420.164 255.717 419.19 254.478C418.215 253.238 417.516 251.806 417.138 250.275C416.761 248.744 416.714 247.15 417 245.6L451.1 54.5C451.688 51.3136 453.291 48.4031 455.671 46.2039C458.05 44.0047 461.078 42.6351 464.3 42.3L554.2 33.6C555.909 33.4385 557.632 33.6719 559.236 34.2821C560.84 34.8924 562.283 35.8632 563.452 37.1196C564.622 38.3759 565.487 39.8843 565.981 41.5281C566.474 43.1719 566.584 44.9072 566.3 46.6L532.3 251.8C531.708 255.418 529.796 258.688 526.933 260.978C524.07 263.269 520.46 264.416 516.8 264.2Z" fill="#A64AC7"/>
<path d="M607 156.2L469.2 158.6C468.359 158.613 467.526 158.44 466.76 158.093C465.994 157.746 465.314 157.235 464.77 156.594C464.225 155.954 463.829 155.201 463.609 154.389C463.389 153.578 463.352 152.728 463.5 151.9L473.6 94.4001C473.887 92.8132 474.689 91.3653 475.882 90.2806C477.075 89.1959 478.593 88.5349 480.2 88.4001L616.2 79.3001C617.287 79.2296 618.375 79.4056 619.385 79.815C620.394 80.2244 621.298 80.8565 622.029 81.6642C622.76 82.4719 623.298 83.4343 623.605 84.4794C623.912 85.5246 623.978 86.6256 623.8 87.7001L613.8 150.2C613.614 151.866 612.814 153.403 611.557 154.512C610.3 155.621 608.676 156.223 607 156.2V156.2Z" fill="#F8AB5D"/>
<path d="M591.8 248.9L454 242.9C453.19 242.857 452.397 242.644 451.674 242.274C450.951 241.905 450.315 241.387 449.805 240.755C449.296 240.123 448.925 239.391 448.718 238.606C448.51 237.821 448.47 237.001 448.6 236.2L459 177.3C459.299 175.629 460.172 174.115 461.468 173.019C462.765 171.924 464.403 171.315 466.1 171.3L602.3 170.2C603.352 170.197 604.392 170.423 605.348 170.861C606.304 171.3 607.154 171.94 607.839 172.739C608.523 173.537 609.026 174.475 609.313 175.487C609.6 176.499 609.664 177.561 609.5 178.6L599.3 242.9C598.996 244.642 598.065 246.213 596.684 247.317C595.303 248.422 593.567 248.985 591.8 248.9V248.9Z" fill="#F8AB5D"/>
<path d="M449 66L564.6 56.8" stroke="#F8AB5D" stroke-width="1.8" stroke-linecap="round" stroke-linejoin="round"/>
<path d="M507.8 52.1L497.9 52.9999C497 53.0999 496.5 52.3999 496.6 51.3999C496.683 50.9264 496.91 50.49 497.25 50.15C497.59 49.8101 498.026 49.5831 498.5 49.4999L508.4 48.6C509.3 48.5 509.9 49.1999 509.7 50.1999C509.601 50.6668 509.369 51.0949 509.032 51.4323C508.695 51.7696 508.266 52.0016 507.8 52.1V52.1Z" fill="#22272E"/>
<path d="M514.4 51.5C513.5 51.6 512.9 50.9 513.1 49.9C513.183 49.4264 513.41 48.99 513.75 48.6501C514.09 48.3101 514.527 48.0831 515 48C515.9 47.9 516.5 48.6 516.3 49.6C516.25 50.0867 516.033 50.5414 515.687 50.8874C515.341 51.2334 514.887 51.4497 514.4 51.5V51.5Z" fill="#22272E"/>
<path d="M625.8 58.3L587.7 61.1999C587.383 61.2387 587.063 61.2014 586.764 61.0912C586.465 60.981 586.197 60.801 585.982 60.5663C585.767 60.3315 585.611 60.0488 585.527 59.7415C585.443 59.4343 585.433 59.1115 585.5 58.8L589.3 35.6999C589.405 35.0146 589.74 34.3851 590.248 33.9133C590.756 33.4414 591.408 33.1549 592.1 33.1L629.8 29.1C630.173 29.0594 630.55 29.1048 630.903 29.2328C631.256 29.3607 631.575 29.5677 631.836 29.838C632.097 30.1083 632.292 30.4346 632.407 30.792C632.522 31.1494 632.554 31.5284 632.5 31.8999L628.8 55.6999C628.62 56.3855 628.238 57.0008 627.702 57.4648C627.167 57.9289 626.504 58.22 625.8 58.3V58.3Z" stroke="#6DAFA7" stroke-width="1.8" stroke-linecap="round" stroke-linejoin="round"/>
<path d="M590.3 33.7L606.9 44.4C607.345 44.6929 607.867 44.849 608.4 44.849C608.933 44.849 609.454 44.6929 609.9 44.4L631.5 29.6" stroke="#6DAFA7" stroke-width="1.8" stroke-linecap="round" stroke-linejoin="round"/>
<path d="M453.9 101.5L422.6 103.2L418 106.2C417.762 106.357 417.483 106.439 417.197 106.437C416.912 106.434 416.634 106.347 416.398 106.186C416.163 106.026 415.98 105.799 415.874 105.534C415.767 105.269 415.742 104.979 415.8 104.7L420.7 77.5C420.892 76.4423 421.427 75.4774 422.223 74.7543C423.018 74.0313 424.029 73.5904 425.1 73.5L457.7 71C458.198 70.956 458.698 71.0268 459.164 71.2069C459.629 71.387 460.047 71.6716 460.385 72.0387C460.724 72.4059 460.973 72.8458 461.114 73.3245C461.256 73.8033 461.285 74.3081 461.2 74.8L457 98.6C456.891 99.3641 456.524 100.068 455.961 100.595C455.397 101.123 454.67 101.442 453.9 101.5V101.5Z" fill="#6DAFA7"/>
<path d="M426.8 81.5L453.2 79.6" stroke="#22272E" stroke-width="1.8" stroke-linecap="round" stroke-linejoin="round"/>
<path d="M425.6 88.2L452 86.4" stroke="#22272E" stroke-width="1.8" stroke-linecap="round" stroke-linejoin="round"/>
<path d="M424.4 94.8L438.2 94" stroke="#22272E" stroke-width="1.8" stroke-linecap="round" stroke-linejoin="round"/>
<path d="M599.6 150.1L461.8 152.5C460.96 152.513 460.126 152.34 459.361 151.993C458.595 151.646 457.915 151.134 457.37 150.494C456.825 149.854 456.429 149.101 456.21 148.289C455.99 147.478 455.953 146.628 456.1 145.8L466.2 88.3C466.487 86.7132 467.289 85.2652 468.483 84.1805C469.676 83.0958 471.193 82.4348 472.8 82.3L608.8 73.2C609.887 73.1295 610.976 73.3055 611.985 73.7149C612.995 74.1243 613.899 74.7564 614.629 75.5641C615.36 76.3718 615.899 77.3342 616.206 78.3794C616.512 79.4245 616.579 80.5255 616.4 81.6L606.4 144.1C606.199 145.76 605.396 147.288 604.142 148.394C602.888 149.5 601.272 150.107 599.6 150.1Z" fill="#22272E"/>
<path d="M497.5 106.6C496.8 110.7 493.2 114.2 489.5 114.4C485.8 114.6 483.4 111.4 484.1 107.3C484.8 103.2 488.4 99.7 492.1 99.5C495.8 99.3 498.2 102.5 497.5 106.6Z" fill="#A64AC7"/>
<path d="M494.9 132.9L478.5 133.4C477.977 133.421 477.457 133.325 476.976 133.119C476.496 132.913 476.067 132.602 475.722 132.209C475.377 131.816 475.124 131.351 474.982 130.847C474.84 130.344 474.812 129.815 474.9 129.3L475.2 127.5C476.5 120.1 482.9 113.8 489.6 113.6C496.3 113.3 500.8 119.2 499.5 126.7L499.1 129.3C498.904 130.284 498.384 131.173 497.622 131.826C496.861 132.478 495.902 132.857 494.9 132.9V132.9Z" fill="#A64AC7"/>
<path d="M584.8 107.3L519.5 110.3C519.178 110.323 518.855 110.272 518.557 110.15C518.258 110.028 517.992 109.838 517.779 109.596C517.566 109.354 517.412 109.066 517.328 108.754C517.245 108.443 517.235 108.116 517.3 107.8L518 103.4C518.129 102.681 518.494 102.025 519.037 101.536C519.58 101.047 520.271 100.753 521 100.7L586.4 97.3C586.723 97.2701 587.049 97.3171 587.35 97.4371C587.652 97.5571 587.921 97.7466 588.135 97.9904C588.35 98.2341 588.504 98.5251 588.584 98.8395C588.665 99.154 588.67 99.4831 588.6 99.8L587.8 104.6C587.702 105.333 587.347 106.008 586.797 106.503C586.247 106.998 585.539 107.28 584.8 107.3V107.3Z" fill="#6DAFA7"/>
<path d="M518.8 122.1L519.8 125.2L522.9 125.7L520.2 128.4L520 131.9L517.4 130.5L514.2 132.1L515.2 128.6L513.4 126.1L516.7 125.3L518.8 122.1Z" fill="#A64AC7"/>
<path d="M533.8 121.6L534.9 124.7L538 125.2L535.3 127.9L535.2 131.4L532.4 130L529.2 131.6L530.2 128.1L528.4 125.5L531.7 124.8L533.8 121.6Z" fill="#A64AC7"/>
<path d="M549.2 121L550.3 124.1L553.5 124.7L550.7 127.4L550.6 131L547.8 129.5L544.5 131.2L545.5 127.6L543.6 125L547.1 124.2L549.2 121Z" fill="#A64AC7"/>
<path d="M564.9 120.4L566 123.6L569.3 124.1L566.5 126.9L566.4 130.5L563.5 129L560.1 130.7L561.2 127L559.2 124.5L562.7 123.7L564.9 120.4Z" fill="#A64AC7"/>
<path d="M581 119.8L582.1 123L585.5 123.6L582.6 126.3L582.5 130L579.5 128.5L576.1 130.2L577.2 126.5L575.2 123.9L578.7 123.1L581 119.8Z" fill="#A64AC7"/>
<path d="M584.3 242.8L446.6 236.7C445.789 236.657 444.997 236.444 444.274 236.074C443.551 235.705 442.914 235.187 442.405 234.555C441.895 233.923 441.525 233.191 441.317 232.406C441.11 231.621 441.07 230.801 441.2 230L451.6 171.1C451.898 169.429 452.771 167.915 454.068 166.819C455.364 165.724 457.003 165.116 458.7 165.1L594.9 164C595.952 163.997 596.992 164.223 597.948 164.661C598.904 165.1 599.754 165.74 600.438 166.539C601.123 167.337 601.626 168.275 601.913 169.287C602.2 170.299 602.263 171.361 602.1 172.4L591.9 236.7C591.595 238.469 590.654 240.065 589.254 241.188C587.855 242.311 586.093 242.885 584.3 242.8Z" fill="#22272E"/>
<path d="M482.8 191.7C482.1 195.9 478.5 199.3 474.7 199.2C470.9 199.1 468.6 195.7 469.3 191.5C470 187.3 473.6 184 477.3 184C481 184 483.6 187.5 482.8 191.7Z" fill="#A64AC7"/>
<path d="M479.9 218.7L463.5 218.2C463 218.176 462.51 218.047 462.062 217.823C461.614 217.599 461.217 217.284 460.898 216.899C460.578 216.513 460.342 216.065 460.205 215.583C460.067 215.101 460.032 214.596 460.1 214.1L460.5 212C461.8 204.4 468.2 198.4 474.9 198.5C481.6 198.6 486.1 204.9 484.7 212.6L484.3 215.1C484.123 216.129 483.58 217.059 482.772 217.721C481.964 218.382 480.944 218.73 479.9 218.7Z" fill="#A64AC7"/>
<path d="M569.9 197.9L504.6 197C504.29 196.995 503.985 196.924 503.705 196.791C503.426 196.658 503.178 196.467 502.979 196.23C502.78 195.992 502.634 195.715 502.551 195.417C502.468 195.119 502.451 194.806 502.5 194.5L503.3 189.9C503.424 189.142 503.814 188.454 504.401 187.959C504.988 187.464 505.732 187.195 506.5 187.2L571.9 187.7C572.209 187.705 572.514 187.776 572.794 187.909C573.074 188.042 573.321 188.233 573.52 188.47C573.72 188.708 573.866 188.985 573.948 189.283C574.031 189.582 574.048 189.894 574 190.2L573.2 195.2C573.035 195.956 572.619 196.635 572.02 197.125C571.421 197.615 570.674 197.888 569.9 197.9Z" fill="#6DAFA7"/>
<path d="M504 209.1L505 212.3L508.1 213L505.4 215.6L505.3 219.2L502.6 217.5L499.4 219L500.4 215.4L498.7 212.8L501.9 212.2L504 209.1Z" fill="#A64AC7"/>
<path d="M519.1 209.4L520.1 212.6L523.3 213.4L520.5 216L520.4 219.6L517.6 218L514.4 219.5L515.4 215.9L513.6 213.1L517 212.6L519.1 209.4Z" fill="#A64AC7"/>
<path d="M534.5 209.8L535.5 213L538.8 213.8L536 216.4L535.8 220.1L533 218.4L529.7 219.9L530.8 216.3L528.9 213.5L532.3 213L534.5 209.8Z" fill="#A64AC7"/>
<path d="M550.2 210.1L551.3 213.4L554.6 214.2L551.7 216.9L551.6 220.6L548.7 218.9L545.3 220.4L546.4 216.7L544.5 213.9L548 213.3L550.2 210.1Z" fill="#63737A"/>
<path d="M566.2 210.5L567.4 213.8L570.7 214.6L567.8 217.3L567.7 221.1L564.8 219.3L561.3 220.9L562.4 217.1L560.4 214.4L564 213.8L566.2 210.5Z" fill="#63737A"/>
<path d="M581.9 12.3C581.368 11.7191 580.675 11.3083 579.91 11.1194C579.145 10.9304 578.341 10.9717 577.6 11.2379C576.858 11.5042 576.211 11.9836 575.741 12.6159C575.271 13.2483 574.998 14.0055 574.957 14.7925C574.915 15.5794 575.107 16.3611 575.508 17.0393C575.91 17.7175 576.502 18.2622 577.212 18.6048C577.922 18.9474 578.717 19.0728 579.497 18.9652C580.278 18.8576 581.009 18.5218 581.6 18C581.998 17.6481 582.322 17.2204 582.553 16.7419C582.784 16.2633 582.918 15.7436 582.946 15.2129C582.974 14.6823 582.896 14.1514 582.716 13.6512C582.536 13.1511 582.259 12.6917 581.9 12.3V12.3Z" fill="#22272E"/>
<path d="M576.5 2.90004L575.8 2.10005C575.237 1.47931 574.557 0.976175 573.799 0.619748C573.041 0.263321 572.22 0.0606583 571.383 0.0234647C570.546 -0.013729 569.71 0.115287 568.923 0.403058C568.137 0.690828 567.415 1.13164 566.8 1.70004V1.70004C566.179 2.26252 565.676 2.94246 565.319 3.70053C564.963 4.4586 564.76 5.27978 564.723 6.11663C564.686 6.95349 564.815 7.78942 565.103 8.57612C565.39 9.36282 565.831 10.0847 566.4 10.7L567.1 11.5C567.915 12.4147 568.498 13.5123 568.8 14.7C569 15.6 569.3 16.7 569.6 17.7C569.727 18.1987 569.98 18.6563 570.336 19.0287C570.691 19.4011 571.136 19.6759 571.628 19.8265C572.12 19.9772 572.643 19.9987 573.146 19.889C573.649 19.7793 574.115 19.542 574.5 19.2L579 15.1L583.5 11C583.872 10.6511 584.15 10.2128 584.306 9.72657C584.462 9.2404 584.491 8.72245 584.391 8.22178C584.291 7.72111 584.065 7.25428 583.734 6.86549C583.403 6.4767 582.978 6.17882 582.5 6.00004C581.5 5.60004 580.5 5.30004 579.6 5.00004C578.457 4.47747 577.409 3.7677 576.5 2.90004V2.90004Z" fill="#6DAFA7"/>
<path d="M200.7 142.4L81.0996 162.4C80.0745 162.565 79.0268 162.524 78.0175 162.281C77.0081 162.037 76.0572 161.595 75.2199 160.981C74.3826 160.367 73.6756 159.593 73.14 158.704C72.6043 157.814 72.2507 156.827 72.0996 155.8L56.7996 46.4C56.6569 45.3993 56.7456 44.3791 57.0588 43.4181C57.3721 42.457 57.9016 41.5805 58.6067 40.8562C59.3117 40.1318 60.1735 39.5788 61.1258 39.2397C62.0781 38.9005 63.0954 38.7843 64.0996 38.9L182.3 52.9C183.955 53.0923 185.506 53.8064 186.729 54.9391C187.951 56.0717 188.782 57.564 189.1 59.2L204.3 137.3C204.497 138.453 204.229 139.638 203.554 140.594C202.879 141.55 201.853 142.2 200.7 142.4V142.4Z" fill="#F8AB5D"/>
<path d="M205.7 141L86.1 161C85.0749 161.165 84.0272 161.124 83.0178 160.881C82.0085 160.637 81.0576 160.195 80.2203 159.581C79.383 158.967 78.676 158.193 78.1404 157.304C77.6047 156.414 77.2511 155.427 77.1 154.4L61.7 44.9999C61.5573 43.9992 61.646 42.9791 61.9592 42.018C62.2725 41.0569 62.802 40.1805 63.5071 39.4562C64.2121 38.7318 65.0739 38.1788 66.0262 37.8396C66.9785 37.5005 67.9958 37.3843 69 37.4999L187.2 51.4999C188.855 51.6923 190.407 52.4064 191.629 53.5391C192.852 54.6717 193.682 56.164 194 57.7999L209.2 135.9C209.318 136.466 209.321 137.05 209.207 137.616C209.094 138.183 208.867 138.721 208.54 139.198C208.212 139.674 207.792 140.08 207.304 140.389C206.816 140.699 206.271 140.907 205.7 141V141Z" fill="#A64AC7"/>
<path d="M129.3 135.5L99.7997 138.9C98.7526 139.043 97.6916 138.765 96.8485 138.128C96.0053 137.491 95.4485 136.546 95.2997 135.5L84.4997 63.3C84.4235 62.8274 84.4571 62.3435 84.5979 61.886C84.7387 61.4284 84.983 61.0094 85.3117 60.6613C85.6404 60.3133 86.0448 60.0455 86.4936 59.8788C86.9424 59.7121 87.4235 59.651 87.8997 59.7L117.4 61.9C118.312 61.9585 119.177 62.3279 119.85 62.9465C120.523 63.5652 120.964 64.3958 121.1 65.3L132.1 131.9C132.181 132.744 131.936 133.587 131.416 134.257C130.895 134.926 130.138 135.371 129.3 135.5V135.5Z" fill="#22272E"/>
<path d="M131.7 134.2L102.2 137.6C101.153 137.743 100.092 137.465 99.2489 136.828C98.4057 136.191 97.849 135.246 97.7001 134.2L86.9001 62C86.8239 61.5273 86.8575 61.0435 86.9983 60.5859C87.1391 60.1284 87.3834 59.7093 87.7121 59.3613C88.0408 59.0132 88.4452 58.7455 88.894 58.5788C89.3427 58.4121 89.8239 58.3509 90.3001 58.4L119.8 60.6C120.713 60.6585 121.577 61.0278 122.251 61.6465C122.924 62.2651 123.365 63.0957 123.5 64L134.5 130.6C134.602 131.448 134.365 132.302 133.841 132.976C133.316 133.65 132.547 134.09 131.7 134.2V134.2Z" fill="#6DAFA7"/>
<path d="M102.6 64L107.2 64.3" stroke="#22272E" stroke-width="1.8" stroke-linecap="round" stroke-linejoin="round"/>
<path d="M109.6 64.5H109.9" stroke="#22272E" stroke-width="1.8" stroke-linecap="round" stroke-linejoin="round"/>
<path d="M87.7998 67.7L124.4 69.6" stroke="#22272E" stroke-width="1.8" stroke-linecap="round" stroke-linejoin="round"/>
<path d="M96.9004 128.6L133.5 125.2" stroke="#22272E" stroke-width="1.8" stroke-linecap="round" stroke-linejoin="round"/>
<path d="M171.4 73C171.9 75.8 170.6 78 168.5 77.9C166.4 77.8 164.1 75.4 163.6 72.6C163.1 69.8 164.4 67.5 166.6 67.7C168.8 67.9 170.8 70.2 171.4 73Z" fill="#22272E"/>
<path d="M175.3 90.9H166.3C165.532 90.9053 164.788 90.6362 164.201 90.1411C163.614 89.646 163.224 88.9576 163.1 88.2L162.8 86.6C161.9 81.3 164.4 77.2 168.3 77.3C172.2 77.4 176 81.6 176.9 86.7L177.2 88.5C177.278 88.7874 177.288 89.0893 177.229 89.3812C177.169 89.6731 177.042 89.9469 176.857 90.1805C176.672 90.4141 176.435 90.601 176.164 90.726C175.894 90.8509 175.598 90.9106 175.3 90.9Z" fill="#22272E"/>
<path d="M164.8 106.7C165.3 109.7 163.9 112.2 161.6 112.4C159.3 112.6 156.9 110.2 156.4 107.1C155.9 104 157.3 101.5 159.7 101.4C162.1 101.3 164.2 103.7 164.8 106.7Z" fill="#22272E"/>
<path d="M168.8 125.8L159.3 126.8C158.469 126.889 157.636 126.66 156.968 126.159C156.3 125.658 155.847 124.922 155.7 124.1L155.4 122.5C154.4 116.9 157.1 112.1 161.4 111.8C165.5 111.5 169.6 115.7 170.6 121.1L170.9 122.9C170.975 123.231 170.979 123.573 170.911 123.905C170.844 124.238 170.706 124.552 170.507 124.826C170.308 125.101 170.053 125.33 169.759 125.498C169.464 125.666 169.137 125.769 168.8 125.8V125.8Z" fill="#22272E"/>
<path d="M189.2 105.5C189.7 108.3 188.6 110.6 186.6 110.8C184.6 111 182.5 108.7 182 105.9C181.5 103.1 182.7 100.7 184.7 100.6C186.7 100.5 188.7 102.8 189.2 105.5Z" fill="#22272E"/>
<path d="M192.8 123.3L185.4 124.1C184.581 124.187 183.76 123.954 183.108 123.451C182.457 122.949 182.024 122.214 181.9 121.4L181.7 120.1C180.7 114.9 183 110.5 186.6 110.2C190.2 110 193.8 113.9 194.7 118.9L195 120.4C195.091 121.076 194.91 121.761 194.498 122.304C194.086 122.848 193.475 123.206 192.8 123.3V123.3Z" fill="#22272E"/>
<path d="M137 92.8L146.2 92.7" stroke="#22272E" stroke-width="1.8" stroke-linecap="round" stroke-linejoin="round"/>
<path d="M146 96.9L151.2 93.5C151.342 93.4155 151.459 93.2932 151.537 93.1467C151.614 93.0001 151.65 92.8349 151.639 92.6694C151.629 92.5039 151.573 92.3444 151.478 92.2086C151.383 92.0729 151.252 91.9661 151.1 91.9L144.7 88.6C144.548 88.5083 144.372 88.4645 144.195 88.4744C144.018 88.4843 143.848 88.5474 143.708 88.6555C143.567 88.7636 143.463 88.9116 143.408 89.0801C143.353 89.2487 143.35 89.4299 143.4 89.6L144.6 96.3C144.615 96.4548 144.672 96.6025 144.764 96.7279C144.856 96.8533 144.98 96.9518 145.123 97.0131C145.266 97.0743 145.422 97.0962 145.577 97.0763C145.731 97.0564 145.877 96.9955 146 96.9Z" fill="#22272E"/>
<path d="M375.6 434.5C375.6 434.5 377 448.2 378.2 455.3C378.5 457.4 386.4 459.8 393.6 458.3C402.5 456.5 403 451.4 403 451.4C403 451.4 401.3 427.4 401.1 425.7C400.9 424 376.9 428.5 375.6 434.5Z" fill="#B28D93"/>
<path d="M400.8 443.4C393.9 446.9 384.9 447 379.6 446.7C378.424 446.638 377.307 446.162 376.448 445.357C375.588 444.552 375.04 443.469 374.9 442.3C374.4 437.9 374 434.5 374 434.5C375.4 427.8 402.3 422.8 402.5 424.7C402.6 425.6 403.1 432.1 403.6 438.6C403.645 439.585 403.405 440.561 402.908 441.413C402.411 442.264 401.679 442.954 400.8 443.4Z" fill="#22272E"/>
<path d="M378 454.5C378 454.5 376.7 456.2 377.3 460.1C377.9 464 377.2 481.5 379.4 483.6C381.6 485.7 406.4 484.2 417.5 481.7C429.4 479 436.9 474.3 437.7 471.8C438.9 468.2 437.9 467.7 425.6 464.1C413.3 460.5 407.1 455.4 404.5 452.5C403.983 451.896 403.35 451.402 402.638 451.049C401.926 450.695 401.15 450.489 400.356 450.442C399.563 450.396 398.768 450.51 398.019 450.777C397.271 451.045 396.584 451.461 396 452C394.5 453.3 392.7 458 389.4 458C381.5 457.9 378.8 454.1 378 454.5Z" fill="#22272E"/>
<path d="M421.1 461.4C421.1 461.4 411.9 462.2 405.2 471.8" stroke="white" stroke-width="1.8" stroke-linecap="round" stroke-linejoin="round"/>
<path d="M413.5 457.9C410.609 458.392 407.853 459.483 405.408 461.102C402.963 462.72 400.882 464.831 399.3 467.3" stroke="white" stroke-width="1.8" stroke-linecap="round" stroke-linejoin="round"/>
<path d="M292 434.8C292 434.8 290.6 454.1 290.4 455C290.2 455.9 291.8 460.6 301.3 461.9C310.8 463.2 314 457.4 314 457.4C314 457.4 317.4 439.7 318 436.5C318.6 433.3 295.1 431.5 292 434.8Z" fill="#B28D93"/>
<path d="M319.8 436.1C319.5 437.4 318.8 441 318.1 445C317.91 446.068 317.379 447.046 316.585 447.786C315.791 448.525 314.779 448.986 313.7 449.1C306.79 449.876 299.794 448.985 293.3 446.5C292.26 446.109 291.376 445.39 290.78 444.452C290.185 443.514 289.911 442.407 290 441.3C290.3 437.3 290.5 434 290.5 434C293.9 430.3 320.5 432.5 319.8 436.1Z" fill="#22272E"/>
<path d="M290.4 454.3C290.4 454.3 288 454.9 287.8 459C287.6 463.1 282.9 481.8 283.1 483.8C283.3 485.8 284.4 488.3 299.5 488.1C314.6 487.9 323 488.7 325.8 486.3C328.6 483.9 324.8 478.4 322 473.4C319.2 468.4 315 460.9 314.3 456.8C313.281 457.512 312.171 458.084 311 458.5C310.1 458.6 309.2 454.3 303.6 454.3C297.1 454.3 294.8 457.9 294.2 457.8C292.542 457.147 291.187 455.899 290.4 454.3V454.3Z" fill="#22272E"/>
<path d="M294.5 466.4C294.5 466.4 305.7 462.2 315.6 466.4" stroke="white" stroke-width="1.8" stroke-linecap="round" stroke-linejoin="round"/>
<path d="M293.7 472.1C293.7 472.1 307 467.9 318 472.1" stroke="white" stroke-width="1.8" stroke-linecap="round" stroke-linejoin="round"/>
<path d="M317.4 255.6C317.4 255.6 338.6 261.4 364 270.4C388 278.9 397.4 283.9 400 300.6C402.6 317.3 399.4 376.8 402.6 392.5C405.8 408.2 409.5 419.3 406.4 427.4C405.876 428.97 405.038 430.418 403.938 431.656C402.838 432.893 401.498 433.895 400 434.6C400 434.6 387.1 440.1 375.6 437.5C373.413 436.819 371.383 435.708 369.631 434.231C367.88 432.754 366.441 430.941 365.4 428.9C361.6 421.8 365.3 398.9 362.4 381.8C359.5 364.7 356.3 336.5 352.8 317.6C349.3 298.7 292.3 291.1 285 276.2C277.7 261.3 281.5 248.2 281.5 248.2C281.5 248.2 311 247.6 317.4 255.6Z" fill="#22272E"/>
<path d="M302.6 274.6C302.568 272.085 302.334 269.577 301.9 267.1" stroke="#63737A" stroke-width="1.8" stroke-linecap="round" stroke-linejoin="round"/>
<path d="M400.9 311.6C399.658 311.92 398.382 312.088 397.1 312.1C388.3 312.1 380.8 304.7 380.4 295.7C380.257 292.802 380.908 289.92 382.283 287.365C383.658 284.81 385.703 282.678 388.2 281.2C395.1 285.8 398.6 291.5 400 300.7C400.4 303.3 400.7 307.1 400.9 311.6Z" stroke="#63737A" stroke-width="1.8" stroke-linecap="round" stroke-linejoin="round"/>
<path d="M218.7 256.9C218.7 256.9 217.9 264.3 218.6 281.2C219.3 297.7 231.9 319.3 258.9 319.6C285.9 319.9 301.8 319.6 301.8 319.6C301.8 319.6 299.7 329.2 298.7 353.7C297.7 378.2 290.3 395 285.5 410.3C281.3 423.7 281.3 433.1 291 437.6C299.856 440.692 309.233 442.017 318.6 441.5C318.6 441.5 326 440.9 328.2 423.2C330.4 405.5 339.8 371.3 347.5 349.3C355.2 327.3 361.3 299.1 349.4 289.5C337.5 279.9 297 274.1 294.9 273.1C292.8 272.1 293.1 258.6 290.6 250.3C288.2 241.8 226.8 240.2 218.7 256.9Z" fill="#22272E"/>
<path d="M347.6 349.2C355.3 327.3 361.4 299 349.5 289.4C337.6 279.8 297.1 274 295 273" stroke="#63737A" stroke-width="1.8" stroke-linecap="round" stroke-linejoin="round"/>
<path d="M295.1 273C295.1 273 284.7 271 280.5 271.7" stroke="#63737A" stroke-width="1.8" stroke-linecap="round" stroke-linejoin="round"/>
<path d="M220.5 292.1C224 290.6 229.2 286.9 232.4 277.8" stroke="#63737A" stroke-width="1.8" stroke-linecap="round" stroke-linejoin="round"/>
<path d="M301.8 319.6C302.961 316.484 304.728 313.628 307 311.2" stroke="#63737A" stroke-width="1.8" stroke-linecap="round" stroke-linejoin="round"/>
<path d="M356.1 312.4C354.851 314.972 352.904 317.143 350.482 318.663C348.06 320.183 345.26 320.993 342.4 321C333.6 321 326.1 313.6 325.7 304.6C325.564 302.495 325.862 300.385 326.575 298.401C327.288 296.416 328.401 294.599 329.844 293.061C331.288 291.524 333.032 290.299 334.968 289.463C336.904 288.627 338.991 288.197 341.1 288.2C343.285 288.208 345.447 288.655 347.457 289.514C349.467 290.372 351.283 291.626 352.8 293.2C355.7 297.9 356.6 304.7 356.1 312.4Z" stroke="#63737A" stroke-width="1.8" stroke-linecap="round" stroke-linejoin="round"/>
<path d="M295.1 447.2C294.882 446.145 294.882 445.055 295.1 444" stroke="#63737A" stroke-width="1.8" stroke-linecap="round" stroke-linejoin="round"/>
<path d="M303.8 449.1C304.315 447.993 304.652 446.812 304.8 445.6" stroke="#63737A" stroke-width="1.8" stroke-linecap="round" stroke-linejoin="round"/>
<path d="M313 449.1C313.617 448.141 314.088 447.097 314.4 446" stroke="#63737A" stroke-width="1.8" stroke-linecap="round" stroke-linejoin="round"/>
<path d="M381 446.7C380.434 445.388 380.031 444.011 379.8 442.6" stroke="#63737A" stroke-width="1.8" stroke-linecap="round" stroke-linejoin="round"/>
<path d="M392.1 446.1C392.269 444.594 392.167 443.07 391.8 441.6" stroke="#63737A" stroke-width="1.8" stroke-linecap="round" stroke-linejoin="round"/>
<path d="M401.9 442.6C402.197 441.178 402.163 439.707 401.8 438.3" stroke="#63737A" stroke-width="1.8" stroke-linecap="round" stroke-linejoin="round"/>
<path d="M296.9 141.1C296.9 141.1 306.8 142.8 322.6 146.5C332.375 148.699 342.254 150.402 352.2 151.6C352.2 151.6 368.5 144.3 387.8 136C398.877 131.134 410.191 126.829 421.7 123.1C421.7 123.1 426.7 123.5 429.6 130.8C430.717 133.591 431.162 136.605 430.9 139.6C430.836 140.368 430.595 141.11 430.196 141.769C429.797 142.429 429.251 142.987 428.6 143.4C424.2 146.3 412.1 154.4 393.1 167.5C368.9 184.2 358.8 185.4 346.8 184.9C333.5 184.3 300.5 178.9 300.5 178.9C300.5 178.9 291.6 177.2 288.5 161.3C285.6 145.4 293.8 140.5 296.9 141.1Z" fill="#A64AC7"/>
<path d="M352 184.9C352 184.9 348.1 183.8 350.7 179.4C353.3 175 363.5 171.5 369.8 174.1C375.1 176.3 371.9 180 371.9 180" stroke="#F8AB5D" stroke-width="1.8" stroke-linecap="round" stroke-linejoin="round"/>
<path d="M415.5 125.2C414.992 128.996 415.618 132.858 417.3 136.3C420.6 142.8 424.6 144.9 425.8 145.3" stroke="#F8AB5D" stroke-width="1.8" stroke-linecap="round" stroke-linejoin="round"/>
<path d="M421.7 123.1C421.7 123.1 420.9 129.2 423.4 134.3C424.327 136.371 425.652 138.24 427.3 139.8C427.79 140.25 428.396 140.554 429.05 140.677C429.704 140.801 430.379 140.74 431 140.5C432.172 139.951 433.419 139.58 434.7 139.4C436.9 139.2 442.9 140.5 446.4 138C449.9 135.5 450.7 135.2 451.2 135.1C451.7 135 457 135 457.9 134.6C459.7 133.8 460.1 130.8 459.2 129.6C458.4 128.6 453.2 128.5 452.2 127C451.2 125.5 452.1 123.9 457.7 122.5C463.3 121.1 473.2 118 472.9 115.6C472.6 113.2 467.3 115 460.5 115.7C453.7 116.4 450.5 116.6 447.7 115.5C444.9 114.4 441.1 114.5 436.8 116.6C434 118 431 119.2 425.7 121.5C424.417 122.152 423.079 122.688 421.7 123.1Z" fill="#B28D93"/>
<path d="M458.6 122.3C459.166 123.911 459.503 125.595 459.6 127.3C459.7 129.5 456.5 135.5 454.2 136.6C451.9 137.7 450.4 136.5 449.4 134.9C448.4 133.3 445.8 123.8 450.8 122.7C455.8 121.6 457.6 121.4 458.6 122.3Z" fill="#B28D93"/>
<path d="M459.1 129.6C458.3 128.6 453.1 128.5 452.1 127C451.1 125.5 452 123.9 457.6 122.5C463.2 121.1 473.1 118 472.8 115.6" stroke="#896068" stroke-width="1.8" stroke-linecap="round" stroke-linejoin="round"/>
<path d="M450 116.2C448.119 116.1 446.234 116.269 444.4 116.7" stroke="#896068" stroke-width="1.8" stroke-linecap="round" stroke-linejoin="round"/>
<path d="M446.3 138C449.8 135.4 450.6 135.2 451.1 135.1C451.6 135 456.9 135 457.8 134.6" stroke="#896068" stroke-width="1.8" stroke-linecap="round" stroke-linejoin="round"/>
<path d="M260.1 130.5C260.1 130.5 261.2 126.4 268.7 126.8C276.2 127.2 287.1 131.1 287.8 136.7C288.5 142.3 263.6 145.4 260.1 130.5Z" fill="#22272E"/>
<path d="M313.6 175.8C312.6 144.2 297 141.1 297 141.1C284.19 139.211 271.247 138.375 258.3 138.6C237.1 139 220.5 142.6 211.9 154.8C204.3 165.6 187.7 213.5 192 226.8C195.6 238 206.2 240.7 225.2 237.4C224 244.4 222.6 249.9 222.6 249.9C230.6 255.7 248.3 261.4 274.8 261.4C298.4 261.4 310.3 253.7 310.3 253.7C309.4 246.6 314.5 207.4 313.6 175.8Z" fill="#A64AC7"/>
<path d="M288 148.5C289.1 155.2 289.6 169.8 291.4 183.6C293.2 197.4 293.5 217.7 293.6 237.1C293.649 248.719 294.821 260.306 297.1 271.7C310.6 267.2 320.2 256.6 320.2 256.6C320.2 256.6 321.5 255 318 242.1C314.5 229.2 313.6 183.6 313.6 183.6C314.133 176.013 313.73 168.389 312.4 160.9C310.2 150 302.8 142.3 297.1 140.5C294.001 139.501 290.756 139.028 287.5 139.1C287.5 139.1 287.7 144.2 288 148.5" fill="#6DAFA7"/>
<path d="M261.7 119.1C261.7 119.1 261.1 130.5 261.1 136.1C261.1 145.9 274.5 156 279.5 156C287.6 156 289 146.5 288.6 142.3C288.2 138.1 288.1 125.9 288.2 125.6C288.3 125.3 266.7 113.7 261.7 119.1Z" fill="#B28D93"/>
<path d="M266.5 125.1C268 137.5 277.9 144 288.6 143.6C288.621 143.197 288.587 142.794 288.5 142.4C288.3 140.7 288.2 137.7 288.2 134.8C280.5 138.8 271 132.3 266.5 125.1Z" fill="#896068"/>
<path d="M273.6 153.8C272.9 165.7 277.3 195.3 277.3 228.9C277.3 262.5 272.4 276.3 272.4 276.3C231.1 281.2 210.1 263.8 210.1 263.8C210.1 263.8 211.7 260.3 215.2 250.6C218.7 240.9 218.7 229 218.7 229C218.7 229 223.5 185.1 221.8 175.3C220.1 165.5 213.8 152.5 213.8 152.5C213.8 152.5 218.8 145.2 232.2 141.5C242.6 138.6 253.9 138.3 258.4 138.3L258.3 138.8C262.9 149.1 273.6 153.8 273.6 153.8Z" fill="#6DAFA7"/>
<path d="M237.9 243.6C244.628 245.507 251.612 246.35 258.6 246.1C259.9 246 260.9 246.8 260.8 247.8V247.9C260.68 248.344 260.421 248.739 260.061 249.027C259.702 249.314 259.26 249.48 258.8 249.5C254.3 249.8 242.7 249.1 236.7 246.7C236.265 246.568 235.893 246.282 235.654 245.895C235.415 245.509 235.324 245.048 235.4 244.6V244.6C235.6 243.7 236.8 243.3 237.9 243.6Z" fill="#EAF9F3"/>
<path d="M303.4 243.3C305.4 242.8 309.9 241.8 314.8 240.1C315.5 239.9 316.3 240.5 316.5 241.5V241.6C316.616 241.909 316.62 242.248 316.51 242.559C316.4 242.87 316.184 243.133 315.9 243.3C313.6 244.2 307.8 246.3 304.1 246.5C303.749 246.458 303.418 246.312 303.151 246.08C302.883 245.848 302.691 245.542 302.6 245.2V245.2C302.4 244.3 302.7 243.5 303.4 243.3Z" fill="#EAF9F3"/>
<path d="M304.4 193.8H303.9C296.3 197.9 291.9 197.7 291.4 193.9C292.2 193.4 292.9 192.9 293.6 192.4C295.268 191.325 297.141 190.61 299.1 190.3C300.557 190.056 302.026 189.889 303.5 189.8C303.5 189.8 305.7 189.3 306.1 190.1C306.5 190.7 306.4 192.2 304.4 193.8Z" fill="#B28D93"/>
<path d="M354.8 228.9L298 228.8C297.58 228.802 297.164 228.716 296.779 228.547C296.394 228.377 296.048 228.129 295.766 227.818C295.483 227.507 295.268 227.14 295.137 226.74C295.005 226.341 294.958 225.918 295 225.5L299.3 181.5C299.392 180.55 299.851 179.673 300.579 179.057C301.308 178.44 302.248 178.133 303.2 178.2L360.2 182C360.834 182.061 361.418 182.367 361.829 182.853C362.24 183.338 362.445 183.965 362.4 184.6L357.8 226.2C357.726 226.943 357.377 227.631 356.822 228.13C356.268 228.629 355.547 228.904 354.8 228.9V228.9Z" fill="#22272E"/>
<path d="M335.4 186.9C335.43 186.753 335.426 186.601 335.39 186.456C335.353 186.31 335.284 186.175 335.188 186.06C335.092 185.944 334.971 185.852 334.835 185.79C334.698 185.728 334.55 185.697 334.4 185.7C334.066 185.716 333.747 185.842 333.494 186.06C333.24 186.277 333.066 186.573 333 186.9C332.97 187.047 332.973 187.199 333.01 187.344C333.046 187.49 333.115 187.625 333.211 187.74C333.307 187.856 333.428 187.948 333.565 188.01C333.701 188.072 333.85 188.103 334 188.1C334.328 188.069 334.639 187.937 334.89 187.722C335.141 187.507 335.319 187.22 335.4 186.9V186.9Z" fill="#63737A"/>
<path d="M284.1 218C283.995 218.433 283.786 218.833 283.489 219.164C283.192 219.496 282.818 219.749 282.4 219.9C267.677 226.185 252.458 231.236 236.9 235C232.7 236 228.7 236.9 225.1 237.5C206 240.7 195.5 238.1 191.9 226.9C187.6 213.6 204.2 165.8 211.8 154.9C212.411 154.024 213.079 153.188 213.8 152.4V152.4C224.3 144.2 235.2 152.2 237.6 165.6C238.8 172.7 235.8 180.5 233.3 189.4C231.5 195.8 226.9 206.1 226.9 206.1L279.3 200.7C279.768 200.627 280.247 200.681 280.687 200.857C281.126 201.033 281.511 201.324 281.8 201.7C286.6 207 285 214.9 284.1 218Z" fill="#A64AC7"/>
<path d="M226.9 206C226.9 206 216.7 207.2 212.8 209.8" stroke="#F8AB5D" stroke-width="1.8" stroke-linecap="round" stroke-linejoin="round"/>
<path d="M272.2 201.3C272.2 201.3 269.4 204.5 270.5 211.2C271.7 218.5 274.9 220.5 277.1 222" stroke="#F8AB5D" stroke-width="1.8" stroke-linecap="round" stroke-linejoin="round"/>
<path d="M191.9 227.8C191.9 227.8 190.8 221.8 199.5 221.7C208.2 221.6 218 233.6 211.9 238.8" stroke="#F8AB5D" stroke-width="1.8" stroke-linecap="round" stroke-linejoin="round"/>
<path d="M324 208.8C323.4 210.7 318.8 208.9 315.3 207.9C310.8 206.6 307.8 205.6 307.5 205.5C310.411 207.068 313.188 208.874 315.8 210.9C319.4 213.6 322.1 216.5 320.9 217.9C319.7 219.3 312.5 215.1 312.5 215.1C312.5 215.1 315.1 216.9 315.7 219C316.3 221.1 312.8 220.4 306.2 216.4C306.2 216.4 303.7 216.5 299 218.6C294.3 220.7 287.3 219.7 285.1 219C284.224 218.741 283.315 218.607 282.4 218.6C281.897 218.595 281.401 218.475 280.951 218.25C280.5 218.025 280.107 217.7 279.8 217.3C277.937 215.045 276.757 212.304 276.4 209.4C276 205.7 276.9 203.6 277.6 202.6C277.922 202.079 278.418 201.69 279 201.5C280.204 201.092 281.374 200.59 282.5 200C283.4 199.5 286.7 197.1 290 194.9C290.484 194.591 290.951 194.257 291.4 193.9C295.565 194.114 299.739 194.08 303.9 193.8H304.4C308.7 193.5 320.2 194.5 321.4 195.8C322.6 197.1 320.9 198.8 315.5 198.7C312.59 198.693 309.682 198.894 306.8 199.3C309.781 200.047 312.692 201.051 315.5 202.3C319.7 204.2 324.7 206.9 324 208.8Z" fill="#B28D93"/>
<path d="M307.6 205.5C307.6 205.5 306 204.9 304.8 204.6C304.08 204.42 303.342 204.319 302.6 204.3" stroke="#896068" stroke-width="1.8" stroke-linecap="round" stroke-linejoin="round"/>
<path d="M312.5 215.1C312.5 215.1 309.2 211.7 305.4 210.9C303.7 210.6 302.6 210.5 302.6 210.5" stroke="#896068" stroke-width="1.8" stroke-linecap="round" stroke-linejoin="round"/>
<path d="M306.9 199.3C305.455 199.243 304.009 199.378 302.6 199.7" stroke="#896068" stroke-width="1.8" stroke-linecap="round" stroke-linejoin="round"/>
<path d="M298.2 194C297.395 194.011 296.591 193.944 295.8 193.8" stroke="#896068" stroke-width="1.8" stroke-linecap="round" stroke-linejoin="round"/>
<path d="M287.7 143.5C287.6 142.169 287.6 140.831 287.7 139.5C287.828 138.573 287.862 137.634 287.8 136.7V134.4C287.8 134.4 288.4 135.7 289.6 137.8C290.8 139.9 289 149.1 288.1 150.2L287.7 143.5Z" fill="#22272E"/>
<path d="M298.6 99C298.215 105.094 298.215 111.206 298.6 117.3C298.863 121.875 297.602 126.407 295.015 130.189C292.427 133.97 288.659 136.788 284.3 138.2C277.6 140.3 265 135.1 262 120.2C259 105.3 252.5 88.5 269.9 82.4C287.3 76.3 298.8 84.8 298.6 99Z" fill="#B28D93"/>
<path d="M261 109.5C261 109.5 263.1 108.2 263.8 103.8C263.841 103.309 263.998 102.836 264.259 102.418C264.52 102.001 264.877 101.652 265.3 101.4C266.301 100.964 267.18 100.29 267.86 99.4353C268.539 98.5811 269 97.5733 269.2 96.5C269.4 94.6 270.2 93.2 272.2 94.3C287.9 103.4 298.3 95.1 298.3 95.1L298.4 100.8C304.5 99.1 308.2 91.1 307 85.2C305.5 77.8 302.7 79.2 299.2 73.6C295.7 68 289.3 64.1 281.1 67C272.9 69.9 269.9 71.2 263.5 71.1C257.1 71 251 73.7 250.5 79.7C250 85.7 244.5 87.5 243.5 93.1C242.5 98.7 244.7 101.5 246.8 103.7C248.9 105.9 244.9 112.1 250.2 117.3C255.5 122.5 259 124.1 261.2 127.5C261.5 127.5 262.3 118.3 261 109.5Z" fill="#22272E"/>
<path d="M262.8 111.2C262.8 111.2 259 104.8 253.9 107.7C248.8 110.6 254.2 120.6 262.1 120.1" fill="#B28D93"/>
<path d="M290.1 106.3C290.457 107.303 290.962 108.247 291.6 109.1C291.874 109.455 292.175 109.79 292.5 110.1C293.029 110.467 293.473 110.945 293.8 111.5C294.11 112.082 294.281 112.729 294.298 113.388C294.316 114.048 294.179 114.702 293.9 115.3C293.685 115.87 293.343 116.383 292.9 116.8C292.504 117.247 291.981 117.562 291.4 117.7C292.02 116.887 292.401 115.918 292.5 114.9C292.617 114.055 292.514 113.193 292.2 112.4C292 112 291.8 111.9 291.3 111.4C290.875 110.93 290.536 110.388 290.3 109.8C289.886 108.679 289.817 107.461 290.1 106.3V106.3Z" fill="#22272E"/>
<path d="M284.7 126C283.378 126.111 282.051 125.851 280.867 125.251C279.684 124.65 278.691 123.733 278 122.6" stroke="#22272E" stroke-width="1.8" stroke-linecap="round" stroke-linejoin="round"/>
<path d="M279 110.5C278.815 110.504 278.631 110.471 278.459 110.402C278.288 110.333 278.132 110.23 278.001 110.099C277.87 109.968 277.767 109.812 277.698 109.641C277.629 109.469 277.596 109.285 277.6 109.1V107.7C277.596 107.515 277.629 107.331 277.698 107.159C277.767 106.988 277.87 106.832 278.001 106.701C278.132 106.57 278.288 106.467 278.459 106.398C278.631 106.329 278.815 106.296 279 106.3V106.3C279.185 106.296 279.369 106.329 279.54 106.398C279.712 106.467 279.868 106.57 279.999 106.701C280.13 106.832 280.233 106.988 280.302 107.159C280.371 107.331 280.404 107.515 280.4 107.7V109.1C280.392 109.469 280.242 109.821 279.981 110.081C279.721 110.342 279.369 110.492 279 110.5V110.5Z" fill="#22272E"/>
<path d="M294.5 110.5C294.315 110.504 294.131 110.471 293.959 110.402C293.788 110.333 293.632 110.23 293.501 110.099C293.37 109.968 293.267 109.812 293.198 109.641C293.129 109.469 293.096 109.285 293.1 109.1V107.7C293.096 107.515 293.129 107.331 293.198 107.159C293.267 106.988 293.37 106.832 293.501 106.701C293.632 106.57 293.788 106.467 293.959 106.398C294.131 106.329 294.315 106.296 294.5 106.3V106.3C294.685 106.296 294.869 106.329 295.04 106.398C295.212 106.467 295.368 106.57 295.499 106.701C295.63 106.832 295.733 106.988 295.802 107.159C295.871 107.331 295.904 107.515 295.9 107.7V109.1C295.892 109.469 295.742 109.821 295.481 110.081C295.221 110.342 294.869 110.492 294.5 110.5V110.5Z" fill="#22272E"/>
<path d="M281 103.2C280 103.6 279.3 102.4 277.8 102.8C275.5 103.5 274.4 104.3 274 103.3C273.7 102.6 275.1 100.8 277.3 100.2C280.5 99.4999 282.8 102.5 281 103.2Z" fill="#22272E"/>
<path d="M292.6 103.2C293.4 103.5 294 102.4 295.1 102.7C296.6 103.2 297.4 103.8 297.6 103C297.8 102.4 297 100.8 295.5 100.3C293.1 99.5 291 102.6 292.6 103.2Z" fill="#22272E"/>
<path d="M254.7 111.9C254.757 111.687 254.857 111.488 254.995 111.316C255.133 111.144 255.305 111.002 255.5 110.9C255.708 110.732 255.949 110.61 256.208 110.541C256.466 110.472 256.736 110.458 257 110.5C257.563 110.615 258.062 110.936 258.4 111.4C258.67 111.777 258.905 112.179 259.1 112.6C259.368 113.313 259.569 114.05 259.7 114.8C259.8 115.1 259.8 115.3 260 115.5C260.288 115.745 260.631 115.917 261 116C260.616 116.251 260.155 116.357 259.7 116.3C259.177 116.157 258.718 115.839 258.4 115.4C257.984 114.743 257.648 114.038 257.4 113.3C257.286 112.992 257.152 112.691 257 112.4C256.925 112.194 256.785 112.018 256.6 111.9C256.3 111.5 255.5 111.6 254.7 111.9Z" fill="#22272E"/>
<path d="M263.7 173.6C264.1 177.4 261.6 181.5 258 181.8C256.248 181.865 254.537 181.262 253.214 180.111C251.891 178.961 251.056 177.35 250.878 175.606C250.699 173.862 251.192 172.116 252.254 170.722C253.317 169.327 254.871 168.39 256.6 168.1C260.3 167.7 263.4 169.8 263.7 173.6Z" fill="#A64AC7"/>
<path d="M273.6 153.8C273.6 153.8 262.9 149.1 258.2 138.7L260.1 130.5C262.302 134.707 265.716 138.156 269.9 140.4C271.032 140.981 271.989 141.852 272.674 142.923C273.359 143.995 273.748 145.229 273.8 146.5C273.878 148.935 273.811 151.373 273.6 153.8V153.8Z" fill="#22272E"/>
<path d="M142.5 212.3C142.503 213.023 142.362 213.739 142.087 214.408C141.811 215.076 141.406 215.684 140.895 216.195C140.384 216.706 139.776 217.111 139.108 217.387C138.439 217.662 137.723 217.803 137 217.8C135.545 217.787 134.154 217.203 133.125 216.175C132.097 215.146 131.513 213.755 131.5 212.3C131.5 210.841 132.079 209.442 133.111 208.411C134.142 207.38 135.541 206.8 137 206.8C138.459 206.8 139.858 207.38 140.889 208.411C141.921 209.442 142.5 210.841 142.5 212.3V212.3Z" fill="#22272E"/>
<path d="M142.5 231.6H131.5C130.908 231.603 130.322 231.488 129.775 231.263C129.228 231.038 128.731 230.706 128.312 230.288C127.894 229.869 127.562 229.372 127.337 228.825C127.112 228.278 126.997 227.692 127 227.1V227.1C127 224.448 128.054 221.904 129.929 220.029C131.804 218.154 134.348 217.1 137 217.1V217.1C139.652 217.1 142.196 218.154 144.071 220.029C145.946 221.904 147 224.448 147 227.1C147.003 227.692 146.888 228.278 146.663 228.825C146.438 229.372 146.106 229.869 145.688 230.288C145.27 230.706 144.772 231.038 144.225 231.263C143.678 231.488 143.092 231.603 142.5 231.6V231.6Z" fill="#22272E"/>
<path d="M109 219.2C108.993 225.094 110.846 230.84 114.295 235.619C117.744 240.399 122.613 243.968 128.209 245.818C133.805 247.669 139.842 247.706 145.46 245.925C151.079 244.145 155.992 240.636 159.5 235.9" stroke="#6DAFA7" stroke-width="1.8" stroke-linecap="round" stroke-linejoin="round"/>
<path d="M162.5 239.2L162.7 230.2L154.8 234.5L162.5 239.2Z" fill="#6DAFA7"/>
<path d="M164.9 219.2C164.895 213.223 162.977 207.404 159.427 202.595C155.877 197.786 150.882 194.239 145.171 192.473C139.46 190.707 133.335 190.816 127.69 192.782C122.045 194.748 117.178 198.469 113.8 203.4" stroke="#6DAFA7" stroke-width="1.8" stroke-linecap="round" stroke-linejoin="round"/>
<path d="M110.7 200.2L110.9 209.1L118.6 204.5L110.7 200.2Z" fill="#6DAFA7"/>
</svg>
