<svg width="492" height="384" viewBox="0 0 492 384" fill="none" xmlns="http://www.w3.org/2000/svg">
<path d="M363.15 309C279.57 390 175.72 406 138.09 350.25C104.8 301 136.28 213.45 204.31 150.13C271.25 87.89 359.53 62.2 407.31 95.13C461.21 132 445.29 229.37 363.15 309Z" fill="#F8AB5D"/>
<path d="M351.21 296.67C267.63 377.72 163.78 393.67 126.15 337.92C92.86 288.71 124.34 201.15 192.37 137.82C259.31 75.59 347.59 49.9 395.37 82.82C449.63 120.09 433.35 217.43 351.21 296.67Z" fill="#8479FF"/>
<path d="M316.11 261.57C265.82 309.7 202.86 321.64 177.53 289.43C154.37 259.76 172.83 203.68 216.97 162.43C260.75 121.54 317.56 105.98 346.87 129.14C378.35 153.75 365.69 213.81 316.11 261.57Z" fill="#6DAFA7"/>
<path d="M283.91 229.37C264.01 248.18 238.68 253.61 227.83 241.67C217.33 230.09 224.21 206.57 243.02 188.84C261.83 171.11 286.08 165.32 297.66 175.84C309.6 186.31 303.81 210.55 283.91 229.37Z" fill="#F4C2C9"/>
<path d="M155.46 107.79C153.633 109.483 151.49 110.798 149.154 111.66C146.818 112.522 144.334 112.914 141.846 112.814C139.357 112.713 136.913 112.122 134.654 111.075C132.395 110.028 130.364 108.544 128.68 106.71L64.27 24.57C62.6708 22.5012 61.8968 19.9123 62.0982 17.3052C62.2996 14.6981 63.462 12.2587 65.36 10.46V10.46C67.2938 8.71171 69.808 7.74371 72.415 7.74371C75.022 7.74371 77.5361 8.71171 79.47 10.46L156.18 81C157.977 82.76 159.392 84.8721 160.336 87.204C161.279 89.5359 161.732 92.0374 161.664 94.5521C161.596 97.0668 161.01 99.5404 159.943 101.818C158.875 104.096 157.349 106.129 155.46 107.79V107.79Z" fill="#22272E"/>
<path d="M79.11 40.13L58.49 43C52.7 43.73 50.49 51 54.87 54.58C67.5436 65.7539 83.0824 73.1718 99.74 76L110.23 77.81C110.503 77.8608 110.785 77.8303 111.041 77.7224C111.297 77.6144 111.516 77.4338 111.67 77.2028C111.824 76.9719 111.908 76.7007 111.909 76.4229C111.911 76.1451 111.831 75.8729 111.68 75.64L85.62 42.66C84.8189 41.7452 83.8086 41.0375 82.6751 40.597C81.5417 40.1565 80.3187 39.9963 79.11 40.13V40.13Z" fill="#6DAFA7"/>
<path d="M94.31 26.38L99 6.12002C99.2735 4.85259 99.9078 3.69134 100.826 2.77631C101.745 1.86128 102.909 1.23154 104.177 0.963045C105.446 0.694548 106.765 0.798755 107.975 1.2631C109.186 1.72744 110.236 2.5321 111 3.58002V3.58002C121.162 17.0337 127.293 33.0971 128.68 49.9L129.41 60.39C129.404 60.6404 129.33 60.8844 129.195 61.0958C129.061 61.3073 128.872 61.4782 128.648 61.5902C128.424 61.7022 128.173 61.7511 127.924 61.7317C127.674 61.7123 127.434 61.6253 127.23 61.48L96.48 33.25C94.31 31.08 93.58 28.55 94.31 26.38Z" fill="#6DAFA7"/>
<path d="M152.56 104.54L173.19 126.61" stroke="#22272E" stroke-width="6.51" stroke-linecap="round" stroke-linejoin="round"/>
</svg>
