<svg width="492" height="384" viewBox="0 0 492 384" fill="none" xmlns="http://www.w3.org/2000/svg">
<path d="M100.28 275.53L77.73 300.21C74.2 303.73 74.2 310.08 77.73 314.31C79.3384 315.977 81.4408 317.083 83.7262 317.463C86.0116 317.843 88.3586 317.477 90.42 316.42L117.2 300.21L100.28 275.53Z" fill="#22272E"/>
<path d="M306.12 335.45L312.46 368.58C313.17 373.52 310.35 379.16 305.46 380.58C303.117 381.331 300.577 381.167 298.351 380.12C296.124 379.074 294.377 377.223 293.46 374.94L279.36 346.74L306.12 335.45Z" fill="#22272E"/>
<path d="M230.69 364.35C315.56 364.35 384.36 295.55 384.36 210.68C384.36 125.81 315.56 57.01 230.69 57.01C145.82 57.01 77.02 125.81 77.02 210.68C77.02 295.55 145.82 364.35 230.69 364.35Z" fill="#6DAFA7"/>
<path d="M300.365 280.612C338.902 242.075 338.902 179.594 300.365 141.057C261.829 102.52 199.348 102.52 160.811 141.057C122.274 179.594 122.274 242.075 160.811 280.612C199.348 319.149 261.829 319.149 300.365 280.612Z" fill="#D1BBFF"/>
<path d="M258.19 245.93L230.69 210.68L245.5 161.34" stroke="#63737A" stroke-width="12.69" stroke-linecap="round" stroke-linejoin="round"/>
<path d="M132.71 62C131.647 62.3614 130.521 62.5008 129.402 62.4096C128.282 62.3185 127.194 61.9987 126.203 61.4701C125.212 60.9415 124.341 60.2152 123.642 59.3363C122.943 58.4573 122.432 57.4444 122.14 56.36C120.567 46.2334 122.522 35.8738 127.677 27.017C132.833 18.1602 140.875 11.3443 150.458 7.71142C160.04 4.07857 170.58 3.84947 180.312 7.06253C190.043 10.2756 198.375 16.7356 203.91 25.36C206.73 29.59 204.61 34.52 199.68 36.64L132.71 62Z" fill="#6DAFA7"/>
<path d="M392.82 138.08C393.531 138.961 394.418 139.683 395.425 140.201C396.431 140.718 397.535 141.02 398.665 141.085C399.795 141.151 400.926 140.98 401.986 140.583C403.046 140.186 404.011 139.572 404.82 138.78C418.92 123.27 420.33 100.01 406.93 82.39C393.53 64.77 371 59.83 352.64 69C348.41 71.11 347 76.75 349.82 80.27L392.82 138.08Z" fill="#6DAFA7"/>
<path d="M300.48 45.73L260.3 34.45C254 32.34 249.73 26 251.84 19C253.96 12.65 260.3 8.42003 267.35 10.54L307.53 21.82C313.87 23.93 318.1 30.28 315.99 37.32C313.87 43.62 306.82 47.85 300.48 45.73Z" fill="#6DAFA7"/>
<path d="M267.662 28.3534L256.647 66.2658L285.754 74.722L296.769 36.8096L267.662 28.3534Z" fill="#6DAFA7"/>
</svg>
