<svg width="57" height="40" viewBox="0 0 57 40" fill="none" xmlns="http://www.w3.org/2000/svg">
<path fill-rule="evenodd" clip-rule="evenodd" d="M32.1987 39.4928V20.3906H31.2578V39.4928H32.1987ZM50.485 39.4928V20.3906H49.5442V39.4928H50.485Z" fill="#BABEC2"/>
<path fill-rule="evenodd" clip-rule="evenodd" d="M32.1987 22.0392L31.2578 22.0594V20.3906H32.1987V22.0392ZM50.485 20.4518V21.6445L49.5442 21.6647V20.4486L50.485 20.4518Z" fill="black"/>
<path d="M54.6896 20H27.1172V20.7223H54.6896V20Z" fill="#BABEC2"/>
<path fill-rule="evenodd" clip-rule="evenodd" d="M27.5078 20.0594C27.8469 18.6325 29.0285 17.5781 30.4323 17.5781C31.8361 17.5781 33.0176 18.6325 33.3567 20.0594H27.5078Z" fill="#B9D8D6"/>
<path fill-rule="evenodd" clip-rule="evenodd" d="M32.3097 20.0564C31.8432 18.9669 31.1082 18.7453 31.1082 18.7453C31.0462 18.7274 31.0102 18.6624 31.028 18.6003C31.0462 18.5381 31.1112 18.5023 31.1733 18.5203C31.1733 18.5203 32.0506 18.764 32.5636 20.0564H32.3097Z" fill="#82B5B2"/>
<path fill-rule="evenodd" clip-rule="evenodd" d="M33.2892 20.0908C33.3762 21.8287 33.5832 24.5657 34.0928 26.0126C34.2049 26.3309 34.3299 26.5848 34.4749 26.745C34.5932 26.8761 34.7232 26.9394 34.8717 26.8975C35.0149 26.8571 35.1627 26.7526 35.301 26.6138C35.2945 26.6044 35.2884 26.595 35.2822 26.5854C35.1012 26.3031 35.0055 25.86 35.0134 25.4717C35.0175 25.2594 35.0529 25.0636 35.1182 24.9174C35.1762 24.7874 35.2591 24.694 35.3604 24.6474C35.4658 24.5988 35.5947 24.5962 35.7469 24.67C36.1215 24.8512 36.2029 25.2571 36.0895 25.7013C36.009 26.0158 35.8318 26.3485 35.6154 26.6138C35.6491 26.639 35.6854 26.6574 35.7247 26.6674C35.8213 26.6917 35.9305 26.6592 36.0553 26.5652C36.1586 26.4876 36.2459 26.3476 36.3253 26.1646C36.4562 25.8627 36.5586 25.4489 36.6403 24.978C36.9645 23.1113 36.9554 20.3657 36.9692 20.0395C36.9718 19.9751 37.0266 19.9247 37.0913 19.9274C37.1557 19.9303 37.2061 19.9851 37.2031 20.0495C37.1894 20.3778 37.1973 23.14 36.8711 25.0182C36.7856 25.5101 36.6769 25.9423 36.5402 26.2577C36.4412 26.4861 36.325 26.6556 36.1961 26.7526C35.9985 26.901 35.8204 26.9329 35.6676 26.8946C35.5929 26.8758 35.5226 26.8392 35.4585 26.7874C35.2904 26.9537 35.1083 27.0741 34.9355 27.123C34.7007 27.1892 34.4881 27.1092 34.301 26.9019C34.1402 26.7239 33.9964 26.4442 33.8717 26.0905C33.3554 24.624 33.1428 21.8471 33.0547 20.0908H33.2892ZM35.462 26.4308C35.6447 26.198 35.7935 25.9133 35.8623 25.6433C35.9452 25.3192 35.9182 25.0132 35.645 24.8808C35.5709 24.8451 35.5094 24.8366 35.4582 24.8603C35.4031 24.8858 35.3639 24.9417 35.332 25.0129C35.2775 25.135 35.2512 25.299 35.2477 25.4764C35.2409 25.8059 35.3144 26.1813 35.462 26.4308ZM33.2152 19.6094C33.2471 19.629 33.2693 19.6635 33.2711 19.704L33.274 19.7693C33.2556 19.7154 33.2359 19.6618 33.2152 19.6094Z" fill="#82B5B2"/>
<path d="M41.4084 31.962C42.7213 31.962 43.7856 30.5784 43.7856 28.8716C43.7856 27.1649 42.7213 25.7812 41.4084 25.7812C40.0956 25.7812 39.0312 27.1649 39.0312 28.8716C39.0312 30.5784 40.0956 31.962 41.4084 31.962Z" fill="white"/>
<path fill-rule="evenodd" clip-rule="evenodd" d="M41.4247 25.4688V26.0043C40.1637 26.0289 39.1764 27.3311 39.1764 28.9013C39.1764 30.4711 40.1637 31.7733 41.4247 31.7979V32.3338C39.9013 32.3097 38.6406 30.7947 38.6406 28.9013C38.6406 27.0075 39.9013 25.4925 41.4247 25.4688Z" fill="black"/>
<path fill-rule="evenodd" clip-rule="evenodd" d="M41.4141 25.4699L41.4518 25.4688C42.9918 25.4688 44.2735 26.9932 44.2735 28.9024C44.2735 30.8116 42.9918 32.3361 41.4518 32.3361L41.4141 32.3349V31.7991L41.4518 31.8005C42.7309 31.8005 43.7376 30.4881 43.7376 28.9024C43.7376 27.3168 42.7309 26.0043 41.4518 26.0043L41.4141 26.0055V25.4699Z" fill="black"/>
<path fill-rule="evenodd" clip-rule="evenodd" d="M41.5023 28.802C41.637 28.802 41.7465 28.9113 41.7465 29.0463C41.7465 29.181 41.637 29.2905 41.5023 29.2905C41.3673 29.2905 41.2578 29.181 41.2578 29.0463C41.2578 28.9113 41.3673 28.802 41.5023 28.802ZM41.9219 28.4817L42.7441 26.8896C42.7737 26.8322 42.7512 26.7613 42.6938 26.7318C42.6361 26.7022 42.5655 26.7247 42.5359 26.7821L41.7137 28.3742C41.6838 28.4316 41.7064 28.5025 41.7641 28.5321C41.8215 28.5616 41.892 28.5391 41.9219 28.4817ZM40.8317 27.171L41.1444 28.405C41.1603 28.4676 41.2238 28.5054 41.2868 28.4896C41.3494 28.4738 41.3872 28.4099 41.3714 28.3473L41.0589 27.1136C41.0431 27.0507 40.9793 27.0129 40.9166 27.0287C40.854 27.0445 40.8159 27.1083 40.8317 27.171Z" fill="black"/>
<path d="M56.1619 27.2806L52.9375 25.625L50.7584 29.869L53.9829 31.5246L56.1619 27.2806Z" fill="#A8CFCC"/>
<path fill-rule="evenodd" clip-rule="evenodd" d="M53.8997 30.9309L54.4473 31.2117C54.505 31.2413 54.5755 31.2184 54.6051 31.161C54.6347 31.1033 54.6119 31.0328 54.5542 31.0032L54.0066 30.7224C53.9489 30.6931 53.8783 30.7156 53.8487 30.7733C53.8195 30.8307 53.842 30.9016 53.8997 30.9309ZM54.2385 30.27L54.7864 30.5505C54.8438 30.5801 54.9146 30.5572 54.9439 30.4998C54.9735 30.4424 54.9507 30.3716 54.8933 30.3423L54.3454 30.0615C54.288 30.0319 54.2174 30.0547 54.1878 30.1121C54.1583 30.1695 54.1811 30.2404 54.2385 30.27ZM54.5776 29.6088L55.1252 29.8896C55.1829 29.9189 55.2534 29.8963 55.283 29.8386C55.3126 29.7812 55.2897 29.7107 55.2321 29.6811L54.6845 29.4003C54.6268 29.3707 54.5562 29.3935 54.5266 29.4509C54.4974 29.5086 54.5202 29.5792 54.5776 29.6088ZM54.9167 28.9476L55.4643 29.2284C55.5217 29.258 55.5925 29.2351 55.6218 29.1774C55.6514 29.12 55.6285 29.0495 55.5712 29.0199L55.0233 28.7391C54.9659 28.7095 54.8953 28.7323 54.8657 28.7897C54.8362 28.8474 54.859 28.918 54.9167 28.9476ZM55.2555 28.2864L55.8034 28.5672C55.8608 28.5968 55.9313 28.5739 55.9609 28.5162C55.9905 28.4588 55.9676 28.3883 55.9102 28.3587L55.3624 28.0779C55.305 28.0483 55.2341 28.0711 55.2048 28.1285C55.1753 28.1862 55.1981 28.2568 55.2555 28.2864ZM55.5852 27.643L56.1331 27.9238C56.1905 27.9534 56.261 27.9306 56.2906 27.8732C56.3202 27.8158 56.2974 27.7449 56.24 27.7156L55.6921 27.4348C55.6347 27.4052 55.5638 27.4281 55.5345 27.4855C55.505 27.5429 55.5278 27.6137 55.5852 27.643Z" fill="black"/>
<path fill-rule="evenodd" clip-rule="evenodd" d="M45.5625 26.2327L50.5288 27.4113L50.2645 28.1518L45.5625 26.2327Z" fill="white"/>
<path d="M50.6572 27.9455L45.4766 26.0967L43.1255 32.6849L48.3061 34.5336L50.6572 27.9455Z" fill="black"/>
<path fill-rule="evenodd" clip-rule="evenodd" d="M50.2908 27.5061L45.5298 26.4033C45.4668 26.3887 45.4276 26.3257 45.4419 26.2625C45.4566 26.1995 45.5195 26.1603 45.5825 26.1749L50.4698 27.307C50.502 27.3146 50.5295 27.3354 50.5456 27.3641C50.5617 27.3931 50.5649 27.4274 50.5541 27.459L50.2876 28.2432C50.2668 28.3044 50.2004 28.3372 50.1392 28.3164C50.078 28.2956 50.0452 28.2288 50.0659 28.1676L50.2908 27.5061Z" fill="black"/>
<path d="M54.4832 28.2031H47.9766V35.9797H54.4832V28.2031Z" fill="white"/>
<path fill-rule="evenodd" clip-rule="evenodd" d="M53.9024 35.1257H48.5234V35.4736H53.9024V35.1257ZM53.9024 34.4882H48.5234V34.8361H53.9024V34.4882ZM53.9024 33.8507H48.5234V34.1986H53.9024V33.8507ZM53.9024 33.2132H48.5234V33.5611H53.9024V33.2132ZM53.9024 32.5758H48.5234V32.9236H53.9024V32.5758ZM53.9024 31.9383H48.5234V32.2862H53.9024V31.9383ZM53.9024 31.3008H48.5234V31.6487H53.9024V31.3008ZM53.9024 30.6633H48.5234V31.0112H53.9024V30.6633ZM53.9024 30.0258H48.5234V30.3737H53.9024V30.0258ZM53.9024 29.3884H48.5234V29.7362H53.9024V29.3884ZM53.9024 28.75H48.5234V29.0979H53.9024V28.75Z" fill="black"/>
<path fill-rule="evenodd" clip-rule="evenodd" d="M48.0936 35.9016H51.2526C51.3171 35.9016 51.3698 35.954 51.3698 36.0187C51.3698 36.0834 51.3171 36.1358 51.2526 36.1358H47.9765C47.9118 36.1358 47.8594 36.0834 47.8594 36.0187V28.2421C47.8594 28.1774 47.9118 28.125 47.9765 28.125H51.0872C51.1516 28.125 51.2043 28.1774 51.2043 28.2421C51.2043 28.3068 51.1516 28.3593 51.0872 28.3593H48.0936V35.9016Z" fill="black"/>
<path fill-rule="evenodd" clip-rule="evenodd" d="M54.3803 28.3593H51.1015C51.0368 28.3593 50.9844 28.3068 50.9844 28.2421C50.9844 28.1774 51.0368 28.125 51.1015 28.125H54.4974C54.5621 28.125 54.6145 28.1774 54.6145 28.2421V36.0187C54.6145 36.0834 54.5621 36.1358 54.4974 36.1358H51.2669C51.2022 36.1358 51.1498 36.0834 51.1498 36.0187C51.1498 35.954 51.2022 35.9016 51.2669 35.9016H54.3803V28.3593Z" fill="black"/>
<path d="M55.6405 29.2969H38.25V39.6892H55.6405V29.2969Z" fill="#BDBDBD"/>
<path fill-rule="evenodd" clip-rule="evenodd" d="M48.9244 29.2969V33.9464L48.3762 33.515L47.8626 33.9464L47.3414 33.515L46.8436 33.9464L46.3859 33.515L45.9062 33.9464V29.2969H48.9244Z" fill="#F2F2F2"/>
<path d="M11.0963 6.94253C12.4525 6.94253 13.5519 5.8431 13.5519 4.48689C13.5519 3.13068 12.4525 2.03125 11.0963 2.03125C9.74005 2.03125 8.64062 3.13068 8.64062 4.48689C8.64062 5.8431 9.74005 6.94253 11.0963 6.94253Z" fill="#FFBBBB"/>
<path fill-rule="evenodd" clip-rule="evenodd" d="M9.74967 6.54021C9.0818 6.10103 8.64062 5.34507 8.64062 4.48689C8.64062 3.1316 9.74098 2.03125 11.0963 2.03125C11.4019 2.03125 11.6946 2.08721 11.9647 2.18946L10.6815 4.70987C10.5857 4.54736 10.4047 4.43766 10.1974 4.43766C9.89023 4.43766 9.64086 4.6784 9.64086 4.97494C9.64086 5.27146 9.89023 5.51222 10.1974 5.51222C10.224 5.51222 10.2502 5.5104 10.2757 5.50692L9.74967 6.54021Z" fill="black"/>
<path fill-rule="evenodd" clip-rule="evenodd" d="M10.5424 2.33096C10.5424 2.33096 10.1949 3.25725 10.2082 3.64878C10.2152 3.85757 10.3905 4.02139 10.5993 4.01433C10.8081 4.00727 10.9719 3.832 10.9649 3.62321C10.9516 3.23168 10.5424 2.33096 10.5424 2.33096Z" fill="white"/>
<path fill-rule="evenodd" clip-rule="evenodd" d="M10.4088 31.7584C9.13959 31.8702 7.57095 31.8767 5.72726 31.6404C4.47473 31.4799 0.29268 30.1657 1.34899 24.7013C1.5578 23.621 2.60884 20.9513 7.07628 20.7191C8.38012 20.6512 17.4913 19.6029 21.1414 23.626C21.2128 23.7051 21.3051 23.8105 21.4087 23.9467C22.6483 24.5092 26.2322 26.4512 26.0954 30.0547C26.0954 30.0547 25.8122 34.091 20.5742 35.831C20.1871 36.6981 19.7326 37.6234 19.2017 38.6087C19.2017 38.6087 20.3953 38.9279 20.6977 39.5988H11.488L12.0393 37.8538L11.4664 37.9891C11.461 38.5959 10.8932 39.2014 10.4088 39.6383V31.7584Z" fill="#7203FF"/>
<path fill-rule="evenodd" clip-rule="evenodd" d="M11.6094 37.9609L12.1185 31.5141C12.1236 31.4497 12.1801 31.4016 12.2445 31.4066C12.309 31.4116 12.3572 31.4681 12.3521 31.5325L11.8488 37.9044L11.6094 37.9609Z" fill="black"/>
<path fill-rule="evenodd" clip-rule="evenodd" d="M13.1719 31.2117L14.2971 30.9938C14.2971 30.9938 14.7104 29.6597 14.9941 28.744C15.0113 28.6884 14.9846 28.6286 14.9318 28.6043C14.879 28.58 14.8163 28.5988 14.7854 28.648C14.171 29.6243 13.1719 31.2117 13.1719 31.2117Z" fill="black"/>
<path fill-rule="evenodd" clip-rule="evenodd" d="M10.4201 31.7973C10.1371 31.8222 12.6936 31.3214 14.1831 30.8737C14.2763 30.8456 14.3829 30.8298 14.3829 30.8298C14.3829 30.8298 14.3411 30.9809 14.3276 31.0222L12.5327 36.5173L20.3386 36.4113C20.302 36.4895 20.2651 36.568 20.2276 36.6471L12.4746 36.7525C12.4684 36.7525 12.4623 36.7519 12.4563 36.751L12.0506 37.8927L11.8191 37.9475L14.036 31.1607C12.8653 31.5003 11.6819 31.7961 10.4201 31.9806V31.7973ZM20.5896 35.8684C24.0748 28.4661 21.355 23.9001 21.42 23.9856C21.5096 24.0263 21.6118 24.0743 21.7243 24.1296C22.4449 25.5323 23.7981 29.4564 20.8979 35.7613C20.7975 35.7979 20.6944 35.8336 20.5896 35.8684Z" fill="black"/>
<path fill-rule="evenodd" clip-rule="evenodd" d="M8.28552 7.57888C13.7037 7.63669 17.5701 8.37552 22.0896 8.74252C23.455 8.85341 26.5836 9.63637 25.8518 12.4473C25.5742 13.5137 24.6073 14.2551 23.5054 14.2466C21.5962 14.2318 18.9883 14.2117 18.9883 14.2117C18.9883 14.2117 21.0568 15.9714 25.3634 16.0338C25.3634 16.0338 30.111 16.4363 30.5561 16.4543C31.3426 16.4861 31.8132 16.4983 32.2448 16.523C32.3376 16.5285 32.4196 16.5853 32.4574 16.6702C32.4952 16.7552 32.4826 16.8541 32.4246 16.9268C32.335 17.0383 32.1546 17.1642 31.8158 17.2917C31.1974 17.5245 30.7133 17.5447 30.2378 17.6848C30.2735 17.6053 31.0099 18.2989 31.4413 18.7442C31.5271 18.834 31.5578 18.963 31.5221 19.0819C31.4861 19.2008 31.3889 19.2911 31.2676 19.3183C31.1745 19.3395 31.0621 19.3442 30.9277 19.3203C31.1836 19.5698 30.8846 19.9836 30.0793 19.5772C29.8679 19.4706 29.795 19.441 29.2512 19.1049C29.2512 19.1049 29.4249 19.417 29.5268 19.6003C29.5537 19.6489 29.5596 19.7066 29.5423 19.7596C29.5253 19.8126 29.487 19.8562 29.4366 19.8799C29.3247 19.9321 29.1482 19.9488 28.8858 19.8114C28.487 19.6032 28.2158 19.4887 27.9669 19.3862C27.7373 19.2918 27.4764 19.3133 27.2656 19.4439C26.3962 19.9807 23.6811 21.2299 18.5397 20.0565C18.5397 20.0565 15.4594 19.6492 11.4316 17.0432C11.3245 16.6188 6.31771 22.5256 1.87645 17.5442C0.127134 15.5821 -0.234712 7.48799 8.28552 7.57888Z" fill="#FFBBBB"/>
<path fill-rule="evenodd" clip-rule="evenodd" d="M29.2727 19.1285C28.4886 18.0882 27.9354 18.0646 27.9354 18.0646C27.871 18.0636 27.8192 18.0103 27.8203 17.9456C27.8212 17.881 27.8745 17.8294 27.9392 17.8304C27.9392 17.8304 28.6868 17.8247 29.6678 19.2796C29.6862 19.3073 29.6915 19.3401 29.685 19.3702C29.5846 19.3116 29.4531 19.2323 29.266 19.1167L29.2727 19.1285ZM30.9424 19.3321C30.9512 19.3407 29.8698 18.3985 29.7339 18.2506C29.2713 17.7466 28.9328 17.5108 28.7085 17.4026C28.5407 17.3216 28.4347 17.32 28.4306 17.32C28.432 17.3198 28.4335 17.3196 28.4347 17.3194L28.4306 17.32C28.3685 17.328 28.3105 17.2853 28.3003 17.2228C28.2897 17.159 28.3331 17.0988 28.3969 17.0882C28.3969 17.0882 28.8897 16.9852 29.9067 18.0922C30.0578 18.2568 30.7969 18.957 31.3091 19.3231C31.3003 19.3258 31.2915 19.3281 31.2824 19.3302C31.1893 19.3513 31.0768 19.356 30.9424 19.3321ZM28.7688 16.3281C28.9837 16.3457 29.191 16.3624 29.384 16.3779C29.5503 16.4968 29.7208 16.6572 29.8751 16.8735C29.9826 17.0242 30.1925 17.3301 30.5676 17.6183C30.4716 17.6388 30.3767 17.6611 30.2824 17.6879C29.9697 17.4173 29.7849 17.1504 29.6845 17.0095C29.3826 16.5863 29.0118 16.4051 28.7688 16.3281Z" fill="black"/>
<path fill-rule="evenodd" clip-rule="evenodd" d="M17.5257 19.8404C16.3019 19.518 14.0652 18.7549 11.4198 17.0433C11.3713 16.6844 6.23158 22.7031 1.86458 17.5442C0.141971 15.5093 -0.246581 7.488 8.27365 7.57889C13.6918 7.6367 17.5583 8.37552 22.0777 8.74252C23.4432 8.85342 26.5717 9.63637 25.8399 12.4473C25.5624 13.5137 24.5954 14.2551 23.4935 14.2466C21.5843 14.2318 18.9764 14.2117 18.9764 14.2117C18.9764 14.2117 20.4499 15.4652 23.4985 15.8938L22.8145 20.54C22.0438 20.5564 21.1711 20.5089 20.1916 20.3678C19.3849 20.2076 18.4599 20.0243 17.5257 19.8404Z" fill="#8B00AD"/>
<path fill-rule="evenodd" clip-rule="evenodd" d="M10.6294 17.6467C9.96565 16.8517 9.61964 15.9728 9.46436 15.4863C9.45288 15.4456 9.471 15.4023 9.50808 15.3818C9.54515 15.3614 9.59144 15.3692 9.61976 15.4006C10.3567 16.1967 11.2706 16.9382 11.4142 17.0534C11.3405 17.0581 11.0622 17.3057 10.6294 17.6467ZM18.9942 14.2406L18.9945 14.2409L18.9957 14.2419L18.9977 14.2436L18.9989 14.2445L18.9998 14.2454L19.0013 14.2465L19.0036 14.2483L19.0056 14.25L19.0074 14.2515L19.0089 14.2527L19.0109 14.2544L19.0144 14.257L19.0171 14.2593L19.0185 14.2604L19.0203 14.2616L19.0256 14.2658L19.0291 14.2686L19.03 14.2694L19.0311 14.2702L19.0399 14.2771L19.0431 14.2796L19.0434 14.2798C19.0481 14.2834 19.0531 14.2873 19.0584 14.2913L19.0595 14.292L19.0645 14.2958L19.0736 14.3028L19.0756 14.3043C19.0803 14.3078 19.0856 14.3115 19.0906 14.3154L19.0914 14.3159L19.0923 14.3166C19.1043 14.3254 19.1172 14.3349 19.131 14.3449L19.1336 14.3467L19.1395 14.351L19.1427 14.3532L19.1436 14.3539L19.1462 14.3558L19.1515 14.3595L19.1541 14.3614L19.1559 14.3627L19.1597 14.3653L19.1638 14.3683L19.1661 14.3699L19.1685 14.3716L19.1734 14.3751L19.1769 14.3775L19.1784 14.3786L19.1816 14.3808L19.1878 14.3851L19.1904 14.3869L19.1913 14.3875L19.1945 14.3898L19.2027 14.3955L19.2045 14.3967C17.8305 13.5338 15.3749 11.7059 13.7572 10.4505C13.6933 10.4009 13.6817 10.3089 13.7312 10.245C13.7808 10.1812 13.8728 10.1696 13.9367 10.2192C15.6097 11.5175 18.184 13.4338 19.5087 14.2413L18.9901 14.2373L18.9933 14.2401L18.9942 14.2406ZM19.7234 9.82402L23.7565 9.93848C23.837 9.94077 23.9046 9.87705 23.907 9.79629C23.909 9.7155 23.8455 9.64806 23.7647 9.64578L19.7316 9.53131C19.6507 9.529 19.5834 9.59272 19.581 9.67351C19.5787 9.75427 19.6425 9.82171 19.7234 9.82402Z" fill="#64190E"/>
<path fill-rule="evenodd" clip-rule="evenodd" d="M15.6325 10.2337C15.0428 8.8824 12.2734 7.73438 12.2734 7.73438L13.3966 7.82515C14.6455 8.39265 15.5674 9.37921 15.93 9.80925C16.0683 9.82779 16.4122 9.88023 16.4179 9.94366C16.4249 10.0231 16.4729 11.3565 16.4729 11.3565C16.4685 11.3587 16.4641 11.3608 16.4598 11.3629L16.4985 11.3654C17.1903 12.6459 16.9386 14.4609 17.9261 15.5517C18.2389 15.8971 18.6479 16.2217 19.0954 16.3704C19.6151 16.543 20.1548 16.5351 20.6942 16.5034C20.8368 16.495 21.1832 16.4698 21.3574 16.4569C21.4222 16.4522 21.4845 16.4811 21.5229 16.5334C21.6722 16.7372 22.0544 17.2591 22.2403 17.5128C22.3006 17.5951 22.2924 17.7089 22.221 17.7817C21.9648 18.0425 21.3844 18.6334 21.187 18.834C21.1443 18.8776 21.0831 18.8976 21.0227 18.8876C20.9085 18.87 20.7267 18.8405 20.6585 18.8208C20.2617 18.7062 19.8705 18.5719 19.4889 18.4137C18.3973 17.9615 17.2431 17.2486 16.7677 16.1216C16.49 15.4633 16.448 14.7607 16.4511 14.0559C16.4537 13.4346 16.5264 12.7808 16.3967 12.1675C16.3463 11.929 16.2342 11.7056 16.1236 11.4902C16.121 11.4852 16.1108 11.4686 16.0979 11.447C15.5773 11.4283 15.3368 10.7635 15.3368 10.7635L15.6325 10.2337Z" fill="black"/>
<path fill-rule="evenodd" clip-rule="evenodd" d="M20.9025 14.194L19.8451 9.48845C19.8451 9.48845 18.8407 9.42868 18.2445 9.32124C18.2445 9.32124 16.782 8.84567 15.7554 9.18403C15.5884 9.23905 15.073 9.52113 14.7219 10.1988C14.5752 10.4818 15.0585 10.6655 15.6157 10.1988C15.7296 10.1034 15.9484 9.99278 16.1759 9.97378C16.1759 9.97378 15.4651 10.53 16.1759 10.9968C16.1759 10.9968 16.0301 11.4922 16.6462 11.5954C16.6462 11.5954 16.5546 12.3361 17.6852 13.0504C18.0091 13.2551 20.5236 14.2762 20.9025 14.194Z" fill="#FFBBBB"/>
<path fill-rule="evenodd" clip-rule="evenodd" d="M16.4615 11.5591C16.5555 11.2881 16.7622 11.1262 16.9617 11.0315C17.1923 10.9219 17.4107 10.9045 17.4107 10.9045C17.4751 10.8992 17.5316 10.9472 17.5369 11.0116C17.5422 11.0761 17.4942 11.1327 17.4297 11.138C17.4297 11.138 17.2525 11.1561 17.0622 11.2431C16.7655 11.3788 16.6622 11.616 16.6622 11.616C16.5835 11.6028 16.5172 11.5832 16.4615 11.5591ZM16.0224 10.8787C16.1497 10.6577 16.3475 10.5148 16.5479 10.4241C16.8764 10.2754 17.2086 10.2691 17.2086 10.2691C17.2732 10.2678 17.3268 10.3192 17.328 10.3838C17.3293 10.4485 17.2779 10.502 17.2133 10.5033C17.2133 10.5033 16.9274 10.5094 16.6445 10.6375C16.4646 10.7189 16.1919 11.0174 16.1919 11.0174C16.1225 10.9718 16.0667 10.9254 16.0224 10.8787ZM15.7891 10.1164C15.7912 10.0966 15.7984 10.077 15.811 10.0597C16.1743 9.56335 16.9713 9.53131 16.9713 9.53131C17.0359 9.52923 17.0901 9.57995 17.0922 9.64458C17.0943 9.70918 17.0436 9.76335 16.979 9.76546C16.979 9.76546 16.7321 9.77392 16.4672 9.87234C16.3159 9.92853 16.1919 9.99433 16.1919 9.99433C16.0455 10.0065 15.9026 10.0567 15.7891 10.1164Z" fill="black"/>
<path fill-rule="evenodd" clip-rule="evenodd" d="M8.48438 7.57812C8.48438 7.57812 9.6437 7.64618 11.306 8.61584C11.8234 8.9176 13.0883 9.75684 14.6238 10.2281C15.207 10.4071 15.4898 10.2743 15.6867 10.3334L15.4676 10.8556C15.4676 10.8556 14.487 10.7538 14.1181 10.6206C14.1181 10.6206 9.47808 7.69968 8.48438 7.57812Z" fill="black"/>
<path d="M12.9454 31.875H1.96094V39.7157H12.9454V31.875Z" fill="#BDBDBD"/>
<path fill-rule="evenodd" clip-rule="evenodd" d="M4.08629 39.716H3.85203V31.875H4.08629V39.716ZM9.22942 31.875V35.9409L8.55162 35.4577L7.8819 35.9409V31.875H9.22942ZM3.45177 31.875V34.591L2.91522 33.7737L2.54688 34.1192V31.875H3.45177Z" fill="#F2F2F2"/>
<path fill-rule="evenodd" clip-rule="evenodd" d="M41.4542 16.0722H33.875V3.82812H52.2747V16.0722H44.3104V19.2249H45.3406V20.0645H40.4325V19.2249H41.4542V16.0722Z" fill="#A3A8AE"/>
<path fill-rule="evenodd" clip-rule="evenodd" d="M51.7892 3.82812V16.0722H43.8249V19.2249H44.8551V20.0645H40.4325V19.2249H41.4542V16.0722H33.875V3.82812H51.7892Z" fill="#E4E4E6"/>
<path d="M50.9237 4.76562H34.7734V14.8402H50.9237V4.76562Z" fill="white"/>
<path fill-rule="evenodd" clip-rule="evenodd" d="M43.8238 19.2192H44.2203C44.1995 19.2374 44.1723 19.2485 44.1427 19.2485L41.4531 19.2192V19.0143H43.8238V19.2192ZM43.8238 16.328H41.4531V16.0938H43.8238V16.328Z" fill="#A3A8AE"/>
<path d="M46.021 0.15625H36.8438V11.4003H46.021V0.15625Z" fill="#FFF3EB"/>
<path d="M43.7577 3.74968C44.5558 3.74968 45.2028 3.10267 45.2028 2.30453C45.2028 1.50639 44.5558 0.859375 43.7577 0.859375C42.9595 0.859375 42.3125 1.50639 42.3125 2.30453C42.3125 3.10267 42.9595 3.74968 43.7577 3.74968Z" fill="black"/>
<path fill-rule="evenodd" clip-rule="evenodd" d="M42.5859 3.17751C42.8591 2.90503 43.2489 2.73438 43.6817 2.73438C44.1558 2.73438 44.5789 2.93947 44.8527 3.25903C44.5877 3.57077 44.1924 3.76863 43.7517 3.76863C43.2732 3.76863 42.8492 3.53584 42.5859 3.17751Z" fill="#FFCFC8"/>
<path d="M43.7167 2.49585C43.996 2.49585 44.2224 2.26943 44.2224 1.99011C44.2224 1.7108 43.996 1.48438 43.7167 1.48438C43.4374 1.48438 43.2109 1.7108 43.2109 1.99011C43.2109 2.26943 43.4374 2.49585 43.7167 2.49585Z" fill="#FFCFC8"/>
<path fill-rule="evenodd" clip-rule="evenodd" d="M43.2109 1.99328V1.99012C43.2109 1.71099 43.4376 1.48438 43.7166 1.48438C43.9957 1.48438 44.2224 1.71099 44.2224 1.99012V1.9929C43.8795 1.99588 43.7166 1.63913 43.7166 1.63913C43.6259 1.93205 43.3609 1.98672 43.2109 1.99328Z" fill="black"/>
<path fill-rule="evenodd" clip-rule="evenodd" d="M44.8224 10.1372H38.5032V10.4963H44.8224V10.1372ZM44.8224 9.37723H38.5032V9.73627H44.8224V9.37723ZM44.8224 8.63966H38.5032V8.9987H44.8224V8.63966ZM44.5735 7.63565H37.7422V8.21881H44.5735V7.63565ZM44.8224 6.55211H38.5032V6.91114H44.8224V6.55211ZM44.8224 5.79211H38.5032V6.15114H44.8224V5.79211ZM44.8224 5.05454H38.5032V5.41357H44.8224V5.05454ZM42.5829 3.77937H37.7422V4.36253H42.5829V3.77937ZM41.7287 2.69536H37.905V2.95598H41.7287V2.69536ZM40.748 2.18089H37.905V2.44154H40.748V2.18089ZM41.5059 1.62918H37.905V1.8898H41.5059V1.62918ZM41.9027 1.09375H37.905V1.35439H41.9027V1.09375Z" fill="black"/>
<path d="M50.2666 8.75H42.8984V13.0312H50.2666V8.75Z" fill="#A8CFCC"/>
<path fill-rule="evenodd" clip-rule="evenodd" d="M50.2665 9.03094L46.6481 11.473C46.6082 11.4998 46.5564 11.4998 46.5169 11.473L42.8984 9.03184V8.75H42.8993L46.5825 11.2347L50.2642 8.75H50.2665V9.03094Z" fill="#82B5B2"/>
<path fill-rule="evenodd" clip-rule="evenodd" d="M41.3744 14.2477L40.8278 13.625L41.5196 13.0178L41.0121 12.4397L43.5718 11.7676L42.5736 14.2186L42.0661 13.6405L41.3744 14.2477Z" fill="black"/>
</svg>
