<svg width="100" height="19" viewBox="0 0 100 19" fill="none" xmlns="http://www.w3.org/2000/svg">
<path d="M0.96 17.64L2.4 17.28V6.72L0.96 6.36V6H4.08C5.52 6 6.24 6.72 6.24 8.16V17.28L7.68 17.64V18H0.96V17.64ZM4.08 4.56C3.6 4.56 3.2 4.4 2.88 4.08C2.56 3.76 2.4 3.36 2.4 2.88C2.4 2.4 2.56 2 2.88 1.68C3.2 1.36 3.6 1.2 4.08 1.2C4.56 1.2 4.96 1.36 5.28 1.68C5.6 2 5.76 2.4 5.76 2.88C5.76 3.36 5.6 3.76 5.28 4.08C4.96 4.4 4.56 4.56 4.08 4.56ZM9.11625 17.64L10.5563 17.28V6.72L9.11625 6.36V6H11.2763C12.2203 6 12.9643 6.304 13.5083 6.912C13.7163 7.152 13.8923 7.448 14.0363 7.8C14.2603 7.384 14.5243 7.024 14.8283 6.72C15.5483 6 16.4443 5.64 17.5163 5.64C18.4123 5.64 19.2123 5.832 19.9163 6.216C20.6363 6.584 21.1963 7.072 21.5963 7.68C21.9963 8.288 22.1963 8.928 22.1963 9.6V17.28L23.6363 17.64V18H20.5163C19.0763 18 18.3563 17.28 18.3563 15.84V9.6C18.3563 8.592 18.1723 7.824 17.8043 7.296C17.4523 6.752 17.0363 6.48 16.5563 6.48C15.9483 6.48 15.4043 6.8 14.9243 7.44C14.7163 7.712 14.5403 8.032 14.3963 8.4V17.28L15.8363 17.64V18H9.11625V17.64ZM24.9572 17.64L26.3972 17.28V7.08H24.7172V6.48H26.3972V5.28C26.3972 4.432 26.5972 3.672 26.9972 3C27.4132 2.328 27.9972 1.8 28.7492 1.416C29.5172 1.032 30.4132 0.839999 31.4372 0.839999C32.2692 0.839999 32.9812 0.967999 33.5732 1.224C34.1812 1.464 34.6372 1.792 34.9412 2.208C35.2452 2.608 35.3972 3.032 35.3972 3.48C35.3972 4.024 35.2292 4.464 34.8932 4.8C34.5732 5.12 34.1412 5.28 33.5972 5.28C33.3732 5.28 33.1492 5.264 32.9252 5.232L32.6372 5.16V1.44L32.4212 1.392C32.3572 1.376 32.2852 1.36 32.2052 1.344C32.1252 1.328 32.0292 1.32 31.9172 1.32C31.3732 1.32 30.9572 1.608 30.6692 2.184C30.3812 2.744 30.2372 3.776 30.2372 5.28V6.48H34.0772V7.08H30.2372V17.28L31.6772 17.64V18H24.9572V17.64ZM35.5069 17.64L36.9469 17.28V1.92L35.5069 1.56V1.2H38.6269C40.0669 1.2 40.7869 1.92 40.7869 3.36V17.28L42.2269 17.64V18H35.5069V17.64ZM49.4231 18.36C48.5271 18.36 47.7191 18.176 46.9991 17.808C46.2951 17.424 45.7431 16.928 45.3431 16.32C44.9431 15.712 44.7431 15.072 44.7431 14.4V6.72L43.3031 6.36V6H46.4231C47.8631 6 48.5831 6.72 48.5831 8.16V14.4C48.5831 15.408 48.7591 16.184 49.1111 16.728C49.4791 17.256 49.9031 17.52 50.3831 17.52C50.9751 17.52 51.5111 17.2 51.9911 16.56C52.1671 16.32 52.3511 16 52.5431 15.6V6.72L51.1031 6.36V6H57.8231V6.36L56.3831 6.72V18.12H56.1431C54.9751 18.12 54.0871 17.8 53.4791 17.16C53.2071 16.872 53.0151 16.552 52.9031 16.2C52.6791 16.6 52.4151 16.96 52.1111 17.28C51.3911 18 50.4951 18.36 49.4231 18.36ZM65.7525 18.36C63.7045 18.36 62.1125 17.8 60.9765 16.68C59.8405 15.544 59.2725 13.984 59.2725 12C59.2725 10.704 59.5205 9.576 60.0165 8.616C60.5125 7.656 61.2005 6.92 62.0805 6.408C62.9765 5.896 64.0005 5.64 65.1525 5.64C66.3045 5.64 67.3125 5.856 68.1765 6.288C69.0565 6.72 69.7285 7.304 70.1925 8.04C70.6725 8.76 70.9125 9.56 70.9125 10.44C70.9125 10.84 70.8725 11.184 70.7925 11.472L70.6725 11.88C69.9845 12.024 69.2405 12.144 68.4405 12.24C66.7605 12.48 65.0645 12.6 63.3525 12.6C63.3525 14.456 63.6085 15.784 64.1205 16.584C64.6325 17.368 65.3365 17.76 66.2325 17.76C66.8565 17.76 67.4325 17.616 67.9605 17.328C68.5045 17.024 68.9285 16.632 69.2325 16.152C69.5525 15.656 69.7125 15.152 69.7125 14.64H70.3125C70.3125 15.28 70.1205 15.888 69.7365 16.464C69.3525 17.04 68.8165 17.504 68.1285 17.856C67.4405 18.192 66.6485 18.36 65.7525 18.36ZM63.3525 12C64.3765 12 65.2085 11.96 65.8485 11.88C66.1205 11.864 66.4085 11.824 66.7125 11.76C66.7285 11.68 66.7685 11.504 66.8325 11.232C66.9125 10.832 66.9525 10.408 66.9525 9.96C66.9525 8.632 66.7765 7.664 66.4245 7.056C66.0725 6.432 65.6485 6.12 65.1525 6.12C63.9525 6.12 63.3525 8.08 63.3525 12ZM72.7022 17.64L74.1422 17.28V6.72L72.7022 6.36V6H74.8622C75.8062 6 76.5502 6.304 77.0942 6.912C77.3022 7.152 77.4782 7.448 77.6222 7.8C77.8462 7.384 78.1102 7.024 78.4142 6.72C79.1342 6 80.0302 5.64 81.1022 5.64C81.9982 5.64 82.7982 5.832 83.5022 6.216C84.2222 6.584 84.7822 7.072 85.1822 7.68C85.5822 8.288 85.7822 8.928 85.7822 9.6V17.28L87.2222 17.64V18H84.1022C82.6622 18 81.9422 17.28 81.9422 15.84V9.6C81.9422 8.592 81.7582 7.824 81.3902 7.296C81.0382 6.752 80.6222 6.48 80.1422 6.48C79.5342 6.48 78.9902 6.8 78.5102 7.44C78.3022 7.712 78.1262 8.032 77.9822 8.4V17.28L79.4222 17.64V18H72.7022V17.64ZM94.3031 18.36C93.3111 18.36 92.4231 18.144 91.6391 17.712C91.2551 17.504 90.9431 17.28 90.7031 17.04C90.4471 17.392 90.1671 17.664 89.8631 17.856C89.7191 17.952 89.5591 18.04 89.3831 18.12H88.7831V14.04H89.7431C89.9511 14.712 90.2551 15.336 90.6551 15.912C91.5031 17.144 92.5591 17.76 93.8231 17.76C94.4951 17.76 94.9991 17.6 95.3351 17.28C95.6871 16.944 95.8631 16.464 95.8631 15.84C95.8631 15.312 95.6231 14.872 95.1431 14.52C94.6791 14.152 93.9431 13.704 92.9351 13.176C92.0711 12.744 91.3671 12.36 90.8231 12.024C90.2951 11.672 89.8391 11.24 89.4551 10.728C89.0871 10.2 88.9031 9.584 88.9031 8.88C88.9031 7.92 89.3111 7.144 90.1271 6.552C90.9591 5.944 92.2311 5.64 93.9431 5.64C94.7911 5.64 95.5751 5.864 96.2951 6.312C96.6471 6.52 96.9511 6.736 97.2071 6.96C97.4151 6.672 97.6951 6.4 98.0471 6.144C98.3191 5.984 98.4791 5.896 98.5271 5.88H99.1271V9.96H98.1671C97.9271 9.272 97.6311 8.656 97.2791 8.112C96.4791 6.864 95.5271 6.24 94.4231 6.24C93.9911 6.24 93.6231 6.4 93.3191 6.72C93.0151 7.04 92.8631 7.44 92.8631 7.92C92.8631 8.528 93.1191 9.04 93.6311 9.456C94.1431 9.856 94.9191 10.32 95.9591 10.848C96.8071 11.28 97.4791 11.664 97.9751 12C98.4871 12.32 98.9191 12.72 99.2711 13.2C99.6391 13.68 99.8231 14.24 99.8231 14.88C99.8231 17.2 97.9831 18.36 94.3031 18.36Z" fill="black"/>
</svg>
