<?xml version="1.0" encoding="UTF-8"?>
<!DOCTYPE svg PUBLIC "-//W3C//DTD SVG 1.1//EN" "http://www.w3.org/Graphics/SVG/1.1/DTD/svg11.dtd">
<!-- Creator: CorelDRAW 2019 (64-Bit) -->
<svg xmlns="http://www.w3.org/2000/svg" xml:space="preserve" width="2057px" height="480px" version="1.1" style="shape-rendering:geometricPrecision; text-rendering:geometricPrecision; image-rendering:optimizeQuality; fill-rule:evenodd; clip-rule:evenodd"
viewBox="0 0 2057 479.97"
 xmlns:xlink="http://www.w3.org/1999/xlink"
 xmlns:xodm="http://www.corel.com/coreldraw/odm/2003">
 <defs>
  <style type="text/css">
   <![CDATA[
    .fil1 {fill:#F49E10;fill-rule:nonzero}
    .fil0 {fill:#E2342A;fill-rule:nonzero}
   ]]>
  </style>
 </defs>
 <g id="Layer_x0020_1">
  <metadata id="CorelCorpID_0Corel-Layer"/>
  <g id="_1507219294640">
   <polygon class="fil0" points="512.19,358.38 512.19,41.36 699.28,41.36 699.28,81.28 551,81.28 551,178.72 684.08,178.72 684.08,218.64 551,218.64 551,318.46 710.21,318.46 710.21,358.38 "/>
   <polygon class="fil0" points="907.29,358.38 842.65,273.78 778.48,358.38 732.85,358.38 820.78,245.26 728.1,128.82 778.95,128.82 842.65,216.27 906.81,128.82 957.19,128.82 869.26,245.26 952.91,358.38 "/>
   <path class="fil0" d="M1177.76 243.36c0,-50.86 -32.67,-81.62 -91.49,-78.84 -28.01,1.32 -71.89,21.78 -67.73,94.86 1.34,23.44 25.55,68.51 79.18,68.51 46.1,0 80.04,-26.74 80.04,-84.53zm-162.12 80.32l0 156.3 -39.28 0 0 -233.86c0,-59.41 45.75,-123.01 116.75,-123.01 71.58,0 125.96,45.63 125.96,120.25 0,73.24 -54.68,123.14 -117.05,123.14 -31.37,0 -71.79,-13.06 -86.38,-42.82z"/>
   <path class="fil0" d="M1251.84 358.38l0 -229.56 38.4 0 0 24.41c18.81,-21.39 48.04,-29.65 79.41,-29.65l0 41.83c-4.27,-0.48 -50.8,-6.24 -79.41,53.76l0 139.21 -38.4 0z"/>
   <path class="fil0" d="M1490.84 161.74c-37.36,0 -65.53,32.19 -67.43,66.88l141.15 0c-0.47,-33.74 -24.74,-66.88 -73.72,-66.88zm-109.74 81.62c0,-66.54 47.53,-120.25 113.12,-120.25 81.37,0 111.87,54.18 111.87,123.1l0 18.54 -182.21 0c2.85,43.25 41.61,66.11 77.47,65.12 26.61,-0.74 44.68,-8.91 63.21,-27.92l25.2 26.49c-23.29,22.81 -54.19,38.06 -91.26,38.06 -68.44,0 -117.4,-51.37 -117.4,-123.14z"/>
   <path class="fil0" d="M1624.81 326.11c0,-0.01 28.45,-25.2 28.51,-25.25 -0.53,0.47 14.39,15.21 15.94,16.5 6.4,5.31 13.69,9.25 21.76,11.38 24.74,6.53 69.4,4.41 72.51,-29.09 1.77,-19.12 -12.63,-29.55 -28.64,-35.53 -21.09,-7.87 -43.76,-10.75 -64.46,-19.85 -23.45,-10.32 -38.5,-28.72 -38.5,-55.09 0,-69.08 98.06,-80.55 142.62,-48.25 2.33,1.69 24.07,21.38 23.13,22.1 0,0 -28.81,22.28 -28.81,22.28 -13.78,-16.64 -27.9,-25.38 -57.84,-25.84 -14.82,-0.23 -35.85,6.23 -40.17,22.63 -5.99,22.75 20.06,31.38 36.91,35.74 22.72,5.88 47.19,9.15 67.44,21.84 27.07,16.96 34.14,53.69 23.47,82.32 -11.52,30.96 -45.02,43.11 -75.64,44.53 -36.05,1.67 -67,-9.88 -92.99,-35.14 -0.46,-0.44 -5.25,-5.28 -5.24,-5.28z"/>
   <path class="fil0" d="M1824.65 326.11c0,-0.01 28.46,-25.2 28.51,-25.25 -0.53,0.47 14.38,15.21 15.94,16.5 6.41,5.31 13.69,9.25 21.76,11.38 24.74,6.53 69.41,4.41 72.51,-29.09 1.78,-19.12 -12.63,-29.55 -28.63,-35.53 -21.1,-7.87 -43.77,-10.75 -64.46,-19.85 -23.46,-10.32 -38.51,-28.72 -38.51,-55.09 0.01,-69.08 98.07,-80.55 142.62,-48.25 2.33,1.69 24.07,21.38 23.14,22.1 0,0 -28.81,22.28 -28.81,22.28 -13.79,-16.64 -27.91,-25.38 -57.85,-25.84 -14.82,-0.23 -35.85,6.23 -40.17,22.63 -5.98,22.75 20.06,31.38 36.91,35.74 22.72,5.88 47.19,9.15 67.44,21.84 27.07,16.96 34.14,53.69 23.48,82.32 -11.53,30.96 -45.02,43.11 -75.65,44.53 -36.04,1.67 -67,-9.88 -92.99,-35.14 -0.46,-0.44 -5.24,-5.28 -5.24,-5.28z"/>
   <polygon class="fil0" points="2009.86,128.38 2009.86,103.79 2001.05,103.79 2001.05,99.3 2023.77,99.3 2023.77,103.79 2014.95,103.79 2014.95,128.38 "/>
   <polygon class="fil0" points="2051.9,128.38 2051.9,105.92 2043.01,128.38 2040.82,128.38 2031.89,105.92 2031.89,128.38 2026.78,128.38 2026.78,99.3 2033.98,99.3 2041.91,119.26 2049.81,99.3 2057,99.3 2057,128.38 "/>
   <path class="fil1" d="M142.59 86.52l-57.51 156.84 120.25 0 -62.74 -156.84zm106.94 271.86l-28.04 -75.57 -153.05 0 -28.04 75.57 -40.4 0 123.1 -317.02 44.2 0 122.63 317.02 -40.4 0z"/>
   <polygon class="fil1" points="313.59,358.38 352.98,358.38 352.98,41.36 313.59,41.36 "/>
   <polygon class="fil1" points="412.8,358.38 452.19,358.38 452.19,133.62 412.8,133.62 "/>
   <path class="fil1" d="M490.77 60.39c0.02,-0.68 0.1,-1.34 0.1,-2.02 0,-0.68 -0.08,-1.34 -0.1,-2.01 -30.44,-1.25 -54.81,-25.75 -55.86,-56.24 -0.81,-0.03 -1.6,-0.12 -2.42,-0.12 -0.81,0 -1.61,0.09 -2.42,0.12 -1.04,30.49 -25.41,54.99 -55.85,56.24 -0.02,0.67 -0.1,1.33 -0.1,2.01 0,0.68 0.08,1.34 0.1,2.02 30.44,1.25 54.81,25.75 55.85,56.24 0.81,0.03 1.61,0.12 2.42,0.12 0.82,0 1.61,-0.09 2.42,-0.12 1.05,-30.49 25.42,-54.99 55.86,-56.24z"/>
  </g>
 </g>
</svg>
